<?xml version="1.0" encoding="utf-8"?>
<!-- Generator: Adobe Illustrator 27.6.1, SVG Export Plug-In . SVG Version: 6.00 Build 0)  -->
<svg version="1.1" id="Layer_1" xmlns="http://www.w3.org/2000/svg" xmlns:xlink="http://www.w3.org/1999/xlink" x="0px" y="0px"
	 viewBox="0 0 52 52" style="enable-background:new 0 0 52 52;" xml:space="preserve">
<style type="text/css">
	.st0{fill:#272828;}
	.st1{fill:#4D4D4E;}
</style>
<path class="st0" d="M19.7,23l0-0.4c-0.5-0.4-1.1-0.8-1.9-1c-1.1-0.4-1.3-0.5-1.3-0.7c0-0.3,0.5-0.4,0.7-0.4c0.7,0,1.5,0.3,1.9,0.5
	l0.3,0.2c0.1,0.1,0.3,0,0.3-0.1l0.7-2.6c0-0.1,0-0.2-0.1-0.2l-0.2-0.1c-1-0.5-2.3-0.7-3.4-0.6c-1.2,0.1-2.3,0.5-3.2,1.3
	c-0.6,0.6-0.9,1.5-0.9,2.4c0,0.9,0.4,2.5,3.1,3.4c1.2,0.4,1.2,0.5,1.2,0.7c0,0.1,0,0.4-0.9,0.4c-0.9,0-2-0.4-2.4-0.7l-0.3-0.2
	c-0.1-0.1-0.3,0-0.3,0.1l-0.7,2.7c0,0.1,0,0.2,0.1,0.2l0.2,0.1c0.5,0.3,1.1,0.5,1.7,0.6c0.6,0.1,1.3,0.2,1.9,0.2
	c1.3,0,2.7-0.4,3.6-1.3c0.3-0.3,0.6-0.8,0.8-1.2C20.1,25.3,19.7,24.2,19.7,23z M23.1,22.9c0,0.5,0.1,0.9,0.2,1.3
	c0.1,0.4,0.3,0.7,0.6,1c0.2,0.3,0.5,0.5,0.9,0.6c0.3,0.2,0.7,0.2,1.1,0.2c0.4,0,0.8-0.1,1.1-0.2c0.3-0.2,0.6-0.4,0.9-0.6
	c0.2-0.3,0.4-0.6,0.6-1c0.1-0.4,0.2-0.8,0.2-1.3c0-0.4-0.1-0.9-0.2-1.2c-0.1-0.4-0.3-0.7-0.6-0.9c-0.2-0.3-0.5-0.5-0.9-0.6
	c-0.3-0.1-0.7-0.2-1.1-0.2s-0.8,0.1-1.1,0.2c-0.3,0.1-0.6,0.3-0.9,0.6c-0.2,0.3-0.4,0.6-0.6,0.9C23.2,22,23.1,22.4,23.1,22.9z
	 M8.4,24.7H5.3v3.8c0,0.1-0.1,0.2-0.2,0.2H1.7c-0.1,0-0.2-0.1-0.2-0.2V17.7c0-0.1,0.1-0.2,0.2-0.2H5c0.1,0,0.2,0.1,0.2,0.2v3.8h3.1
	v-3.8c0-0.1,0.1-0.2,0.2-0.2H12c0.1,0,0.2,0.1,0.2,0.2v10.9c0,0.1-0.1,0.2-0.2,0.2H8.6c-0.1,0-0.2-0.1-0.2-0.2L8.4,24.7L8.4,24.7z
	 M40.3,17.4H37c-0.1,0-0.2,0.1-0.2,0.2v6.1v0v0.4c0,0.8-0.6,1.4-1.4,1.4c-0.8,0-1.4-0.6-1.4-1.4c0,0,0,0,0,0v-0.4v-6.1
	c0-0.1-0.1-0.2-0.2-0.2h-5.2l0.3,0.2c1.9,1.1,3.2,3.1,3.2,5.4c0,2.7-1.7,4.9-4,5.8c0.7-0.1,1.3-0.2,1.8-0.4c0.6-0.2,1.2-0.5,1.6-0.9
	l0.5,0.4c0.2,0.1,0.4,0.3,0.6,0.4c0.4,0.2,0.9,0.3,1.4,0.4c1,0.2,2,0.1,3-0.1c0.8-0.2,1.5-0.6,2-1.1c0.5-0.5,0.9-1.2,1.2-1.9
	c0.3-0.7,0.3-1.5,0.3-2.3v-3.6v-2C40.6,17.5,40.5,17.4,40.3,17.4z M50.3,24.5c-0.1-0.3-0.3-0.5-0.5-0.8s-0.4-0.4-0.6-0.5L49,23.1
	c-0.1,0-0.2-0.1-0.3-0.1c0,0-0.1,0-0.1,0c0,0-0.1,0-0.1,0c0,0,0,0,0,0c0,0,0,0,0,0c0,0,0,0,0,0c0,0,0,0,0.1,0c0,0,0,0,0.1,0
	c0,0,0.1,0,0.1,0l0.2-0.1c0.1,0,0.1-0.1,0.2-0.1l0.2-0.1l0.2-0.1c0.1-0.1,0.1-0.1,0.2-0.2l0.1-0.2c0.3-0.4,0.4-0.9,0.4-1.5
	c0-0.6-0.2-1.2-0.4-1.6c-0.3-0.4-0.7-0.7-1.1-0.9c-0.4-0.2-0.9-0.4-1.4-0.4c-0.5-0.1-1-0.1-1.5-0.1h-4.4c-0.1,0-0.2,0.1-0.2,0.2
	v10.9c0,0.1,0.1,0.2,0.2,0.2h4.9c0.6,0,1.1,0,1.6-0.1c0.5-0.1,1-0.3,1.4-0.5c0.4-0.3,0.7-0.6,1-1c0.2-0.4,0.4-0.9,0.4-1.6
	C50.5,25.1,50.5,24.8,50.3,24.5L50.3,24.5z M45.9,25.8h-1.2v-1.6h1.2c0.5,0,0.8,0.4,0.8,0.8c0,0,0,0,0,0
	C46.7,25.5,46.3,25.8,45.9,25.8z M45.9,21.7h-1.2v-1.6h1.2c0.5,0,0.8,0.4,0.8,0.8c0,0,0,0,0,0C46.7,21.4,46.3,21.7,45.9,21.7z"/>
<g id="layer1_00000011028590990202225030000014731526375254395024_" transform="translate(-79.853235,-47.854618)">
	<g>
		<path id="path28_00000176028315343942082870000012994563165473412498_" class="st1" d="M101,80.3c0-0.3,0.1-0.7,0.2-1v-0.8
			c0,0,0-0.1-0.1-0.1H100c0,0-0.1,0-0.1,0.1v1.6c0,0.3-0.3,0.6-0.6,0.6h-0.7c-0.3,0-0.6-0.3-0.6-0.6v-1.6c0,0,0-0.1-0.1-0.1h-1.1
			c0,0-0.1,0-0.1,0.1v2.1c0,0.8,0.6,1.4,1.4,1.4h1.7c0.6,0,1.1-0.4,1.3-1C101,80.9,101,80.6,101,80.3L101,80.3z M113.1,83.3v-0.4
			l-0.2,0.4h-0.1l-0.2-0.4v0.4h-0.2v-0.7h0.2l0.2,0.4l0.2-0.4h0.2v0.7H113.1z M111.6,83c0,0.1,0.1,0.2,0.2,0.2
			c0.1,0,0.2-0.1,0.2-0.2c0-0.1-0.1-0.2-0.2-0.2C111.7,82.8,111.6,82.9,111.6,83z M112.1,83c0,0.2-0.2,0.3-0.4,0.3
			c-0.2,0-0.4-0.1-0.4-0.3c0-0.2,0.2-0.3,0.4-0.3C112,82.7,112.1,82.8,112.1,83z M111.1,82.8l-0.1,0.1c0-0.1-0.1-0.1-0.2-0.1
			c-0.1,0-0.2,0.1-0.2,0.2c0,0.1,0.1,0.2,0.2,0.2c0.1,0,0.1,0,0.2-0.1l0.1,0.1c-0.1,0.1-0.2,0.1-0.3,0.1c-0.2,0-0.4-0.2-0.4-0.3
			c0-0.2,0.2-0.3,0.4-0.3C110.9,82.7,111,82.7,111.1,82.8L111.1,82.8z M110.1,83.2c0,0.1,0,0.1-0.1,0.1c-0.1,0-0.1,0-0.1-0.1
			c0-0.1,0-0.1,0.1-0.1C110.1,83.1,110.1,83.2,110.1,83.2z M109.1,83.2h0.1c0.1,0,0.1,0,0.1-0.1c0,0,0-0.1-0.1-0.1h-0.1V83.2z
			 M109.1,82.9h0.1c0,0,0.1,0,0.1-0.1c0,0,0-0.1-0.1-0.1h-0.1V82.9z M109.3,82.7c0.2,0,0.2,0.1,0.2,0.2c0,0.1,0,0.1-0.1,0.1
			c0.1,0,0.1,0.1,0.1,0.2c0,0.1-0.1,0.2-0.3,0.2H109v-0.7H109.3z M108.6,83.1c0,0.2-0.1,0.3-0.3,0.3c-0.2,0-0.3-0.1-0.3-0.3v-0.4
			h0.2v0.4c0,0.1,0.1,0.1,0.1,0.1c0.1,0,0.1-0.1,0.1-0.1v-0.4h0.2V83.1z M107,83c0,0.1,0.1,0.2,0.2,0.2c0.1,0,0.2-0.1,0.2-0.2
			c0-0.1-0.1-0.2-0.2-0.2S107,82.9,107,83z M107.6,83c0,0.2-0.2,0.3-0.4,0.3c-0.2,0-0.4-0.1-0.4-0.3c0-0.2,0.2-0.3,0.4-0.3
			C107.4,82.7,107.6,82.8,107.6,83z M106.5,82.7l-0.1,0.1c-0.1,0-0.2-0.1-0.2-0.1c0,0-0.1,0-0.1,0c0,0.1,0.4,0,0.4,0.3
			c0,0.1-0.1,0.2-0.3,0.2c-0.1,0-0.2,0-0.3-0.1l0.1-0.1c0.1,0.1,0.2,0.1,0.2,0.1c0.1,0,0.1,0,0.1-0.1c0-0.1-0.4,0-0.4-0.3
			c0-0.1,0.1-0.2,0.3-0.2C106.4,82.7,106.5,82.7,106.5,82.7z M105.4,83.3v-0.3h-0.3v0.3H105v-0.7h0.2V83h0.3v-0.3h0.2v0.7H105.4z
			 M98.6,83.2c0.2,0.2,0.5,0.2,0.7,0c0.2-0.2,0.2-0.5,0-0.7c-0.2-0.2-0.5-0.2-0.7,0C98.4,82.7,98.4,83,98.6,83.2L98.6,83.2"/>
		<path id="path30_00000178170513678845380710000015677457164214526104_" class="st1" d="M102.1,80.3c0,0.1,0,0.3,0.1,0.4
			c0,0.1,0.1,0.2,0.2,0.3c0.1,0.1,0.2,0.2,0.3,0.2c0.1,0,0.2,0.1,0.4,0.1s0.2,0,0.3-0.1c0.1,0,0.2-0.1,0.3-0.2
			c0.1-0.1,0.1-0.2,0.2-0.3c0-0.1,0.1-0.3,0.1-0.4c0-0.1,0-0.3-0.1-0.4c0-0.1-0.1-0.2-0.2-0.3c-0.1-0.1-0.2-0.1-0.3-0.2
			c-0.1,0-0.2-0.1-0.3-0.1c-0.1,0-0.2,0-0.4,0.1c-0.1,0-0.2,0.1-0.3,0.2c-0.1,0.1-0.1,0.2-0.2,0.3C102.1,80,102.1,80.2,102.1,80.3"
			/>
		<path id="path32_00000161599392566929703130000003668104166784559031_" class="st1" d="M114.8,79.5c-0.1-0.2-0.2-0.4-0.3-0.6
			c-0.1-0.2-0.3-0.3-0.5-0.3c-0.2-0.1-0.4-0.1-0.6-0.1h-1.8c0,0-0.1,0-0.1,0.1v1.1c0,0,0,0.1,0.1,0.1h1.6c0.2,0,0.3,0,0.4,0.1
			c0.1,0.1,0.2,0.2,0.2,0.4c0,0.2-0.1,0.3-0.2,0.4c-0.1,0.1-0.2,0.2-0.4,0.2h-2.7c0,0-0.1,0-0.1-0.1v-2.2c0,0,0-0.1-0.1-0.1h-1.1
			c0,0-0.1,0-0.1,0.1v1.7c0,0.2,0,0.3-0.1,0.4c-0.1,0.1-0.2,0.2-0.4,0.2s-0.3-0.1-0.4-0.2c-0.1-0.1-0.2-0.2-0.2-0.4v-1.7
			c0,0,0-0.1-0.1-0.1H107c0,0-0.1,0-0.1,0.1v1.7c0,0.2,0,0.3-0.1,0.4c-0.1,0.1-0.2,0.2-0.4,0.2c0,0,0,0-0.1,0c0,0-0.1,0-0.1,0
			c-0.1,0-0.1-0.1-0.2-0.1c-0.1-0.1-0.2-0.2-0.2-0.4v-1.7c0,0,0-0.1-0.1-0.1h-1.9c0.7,0.3,1.1,1,1.1,1.8c0,0.2,0,0.5-0.1,0.7
			c0,0.1-0.1,0.2-0.1,0.2v0c-0.5,1-1,1.3-1.8,2c0.4-0.2,1.4-0.6,2.1-1.6c0,0,0,0,0.1,0.1c0.2,0.2,0.3,0.3,0.5,0.3
			c0.2,0.1,0.5,0.1,0.8,0.1h7c0.2,0,0.4,0,0.6-0.1c0.2-0.1,0.4-0.2,0.5-0.3c0.1-0.1,0.3-0.3,0.3-0.6c0.1-0.2,0.1-0.5,0.1-0.8
			C115,80,114.9,79.7,114.8,79.5"/>
	</g>
</g>
</svg>
