<?xml version="1.0" encoding="utf-8"?>
<!-- Generator: Adobe Illustrator 27.6.1, SVG Export Plug-In . SVG Version: 6.00 Build 0)  -->
<svg version="1.1" id="Layer_1" xmlns="http://www.w3.org/2000/svg" xmlns:xlink="http://www.w3.org/1999/xlink" x="0px" y="0px"
	 viewBox="0 0 52 52" style="enable-background:new 0 0 52 52;" xml:space="preserve">
<style type="text/css">
	.st0{fill-rule:evenodd;clip-rule:evenodd;fill:#22356C;}
	.st1{fill-rule:evenodd;clip-rule:evenodd;fill:url(#SVGID_1_);}
	.st2{fill:url(#SVGID_00000037671211435602288290000007978569713993317264_);}
	.st3{fill:url(#SVGID_00000025440264677972091540000016731890457260346290_);}
	.st4{fill:#D5DFE1;}
	.st5{fill:url(#SVGID_00000149348898822808496050000003200870308962712469_);}
	.st6{fill:url(#SVGID_00000115491763620294917420000013611391094250488234_);}
	.st7{fill:#22356C;}
</style>
<g>
	<g>
		<g>
			<path class="st0" d="M43.6,26.6c0,9.9-8,17.9-17.9,17.9s-17.9-8-17.9-17.9s8-17.9,17.9-17.9C35.6,8.7,43.6,16.7,43.6,26.6z"/>
			
				<radialGradient id="SVGID_1_" cx="5173.6978" cy="-7500.2383" r="376.1393" gradientTransform="matrix(4.757426e-02 0 0 -4.757426e-02 -220.4402 -330.1598)" gradientUnits="userSpaceOnUse">
				<stop  offset="0" style="stop-color:#3B476D"/>
				<stop  offset="0.2879" style="stop-color:#354269"/>
				<stop  offset="0.7004" style="stop-color:#25365C"/>
				<stop  offset="1" style="stop-color:#162A51"/>
			</radialGradient>
			<polygon class="st1" points="29.5,26.8 43.6,26.6 29.5,26.5 43.5,25.2 29.4,26.2 43.3,23.8 29.4,25.9 43.1,22.4 29.3,25.6 
				42.7,21 29.2,25.4 42.2,19.8 29.1,25.1 41.7,18.5 28.9,24.8 40.9,17.2 28.8,24.6 40.1,16.1 28.7,24.3 39.3,15.1 28.5,24.1 
				38.4,14 28.2,23.9 37.3,13.1 28,23.7 36.2,12.2 27.8,23.5 35,11.4 27.5,23.3 33.7,10.7 27.2,23.2 32.5,10.1 27,23.1 31.2,9.7 
				26.7,23.1 29.9,9.3 26.4,23 28.5,9 26.1,22.9 27.1,8.8 25.8,22.9 25.8,10.1 25.8,8.7 25.8,10 25.8,8.7 25.6,15.9 25.6,16.6 
				25.6,23 24.3,8.8 25.3,23 22.9,9 24.9,23 21.6,9.3 24.7,23.1 20.2,9.8 24.4,23.1 18.9,10.2 24.1,23.2 17.6,10.7 23.9,23.4 
				16.4,11.4 23.6,23.5 15.1,12.2 23.4,23.7 14.1,13.1 23.2,23.9 13,14 23,24.1 12.1,15.1 22.7,24.3 11.2,16.1 22.5,24.6 10.5,17.2 
				22.4,24.8 9.7,18.6 22.3,25.1 9.2,19.9 22.2,25.4 8.7,21 22.1,25.6 8.3,22.4 22,25.9 8,23.8 22,26.3 7.9,25.2 21.9,26.5 
				7.9,26.7 21.9,26.8 7.9,28 22,27.1 8,29.5 22,27.4 8.4,30.7 22.1,27.7 8.7,32.2 22.2,27.9 9.1,33.5 22.3,28.2 9.7,34.7 
				22.4,28.5 10.4,36 22.5,28.7 11.2,37.2 22.7,29 12.1,38.3 23,29.2 13,39.2 23.2,29.5 14,40.2 23.4,29.6 15.1,41.1 23.6,29.8 
				16.4,41.9 23.9,29.9 17.5,42.5 24.1,30.1 18.9,43.2 24.4,30.3 20.2,43.7 24.7,30.3 21.5,44 24.9,30.3 22.9,44.3 25.3,30.4 
				24.3,44.5 25.6,30.4 25.6,43.2 25.6,43.6 25.7,44.5 25.7,44.4 25.7,44.6 25.7,43.6 25.7,43.2 25.8,30.3 27.1,44.5 26.1,30.3 
				28.5,44.3 26.4,30.3 29.9,44 26.7,30.3 31.2,43.7 27.1,30.3 32.5,43.2 27.2,30.1 33.9,42.5 27.5,29.9 35.1,41.9 27.8,29.7 
				36.2,41.1 28,29.5 37.4,40.1 28.2,29.4 38.4,39.2 28.5,29.2 39.3,38.3 28.7,28.9 40.1,37.2 28.8,28.7 40.9,36 28.9,28.5 
				41.7,34.7 29.1,28.2 42.3,33.4 29.2,27.9 42.7,32.2 29.3,27.7 43,30.7 29.4,27.4 43.3,29.4 29.4,27.1 43.5,27.9 			"/>
		</g>
		<g>
			
				<radialGradient id="SVGID_00000050645562715652093500000002881889116115193006_" cx="5218.4487" cy="-7259.0908" r="84.2519" gradientTransform="matrix(4.757426e-02 0 0 -4.757426e-02 -220.4402 -330.1598)" gradientUnits="userSpaceOnUse">
				<stop  offset="0" style="stop-color:#FFFFFF"/>
				<stop  offset="0.1681" style="stop-color:#F8F9F9"/>
				<stop  offset="0.4097" style="stop-color:#E5E8E8"/>
				<stop  offset="0.6956" style="stop-color:#C6CCCD"/>
				<stop  offset="1" style="stop-color:#9DA8A9"/>
			</radialGradient>
			<path style="fill:url(#SVGID_00000050645562715652093500000002881889116115193006_);" d="M27,9.8c0,0,0.1,1.6-0.2,2.9
				c-0.4,1.3-0.7,2.4-0.7,2.4l2.5,5.5c0,0,0.7-2.1,0.9-3c0.2-1,0.1-1.8-0.2-2.4C29,14.4,27,9.8,27,9.8z"/>
			
				<radialGradient id="SVGID_00000165919854502500293570000000416119726872219288_" cx="5288.7295" cy="-7420.7861" r="79.9167" gradientTransform="matrix(4.757426e-02 0 0 -4.757426e-02 -220.4402 -330.1598)" gradientUnits="userSpaceOnUse">
				<stop  offset="0" style="stop-color:#FFFFFF"/>
				<stop  offset="0.1681" style="stop-color:#F8F9F9"/>
				<stop  offset="0.4097" style="stop-color:#E5E8E8"/>
				<stop  offset="0.6956" style="stop-color:#C6CCCD"/>
				<stop  offset="1" style="stop-color:#9DA8A9"/>
			</radialGradient>
			<path style="fill:url(#SVGID_00000165919854502500293570000000416119726872219288_);" d="M30.3,17.7c0,0,0.1,0.9-0.2,2.6
				c-0.3,1.6-0.5,2.3-0.5,2.3L32,28c0,0,0.6-1.8,0.7-2.7c0.1-0.9,0.1-1.6-0.3-2.5C32,22.1,30.3,17.7,30.3,17.7z"/>
			<path class="st4" d="M25.6,16.6L28,22c0,0-2.7,5.6-3.6,7.1s-3.5,6.1-3.6,6.7c-0.2,0.5-0.2,0.8-0.2,0.8s-1.4-0.3-2.1-0.7
				c-0.7-0.4-0.9-0.6-1.1-0.8c-0.2-0.3-0.3-0.8-0.1-1.2c0,0,1.5-3.9,2.5-5.6c0.9-1.7,5-9.8,5.2-10.4C25.3,17.1,25.6,16.6,25.6,16.6z
				"/>
			
				<linearGradient id="SVGID_00000116193088491621130340000000005014548472333955_" gradientUnits="userSpaceOnUse" x1="17.4736" y1="12.6466" x2="27.8519" y2="12.6466" gradientTransform="matrix(1 0 0 -1 0 51.8898)">
				<stop  offset="0" style="stop-color:#640E1A"/>
				<stop  offset="1" style="stop-color:#CF2332"/>
			</linearGradient>
			<path style="fill:url(#SVGID_00000116193088491621130340000000005014548472333955_);" d="M25.6,38.2c-0.1-0.4-0.4-0.6-1.2-0.8
				c-0.7-0.2-3.6-0.8-4.2-1c-0.5-0.2-1.6-0.4-2-0.8c-0.4-0.4-0.7-0.6-0.7-0.6s2,4.8,2.2,5.2s0.6,0.7,1.4,1c0,0,2.2,0.7,3,0.9
				c0.9,0.2,1.9,0.4,2.7,0.8c0.8,0.4,1,0.6,1,0.6s-1.5-3.5-1.7-3.8C26.1,39.4,25.6,38.2,25.6,38.2"/>
			<path class="st4" d="M29,24.1c0,0-1.4,3.4-2.4,5.3c-1,2-3,5.7-3.5,6.5c-0.4,0.8-0.6,1.2-0.6,1.2s1.6,0.4,2,0.4
				c0.4,0.1,0.8,0.4,0.9,0.7c0.1,0.3,0.6,1.6,0.6,1.6s3.4-6.1,4-7.2c0.5-1.1,1.3-2.8,1.3-2.8L29,24.1z"/>
			<path class="st4" d="M17.3,18.9c0,0-0.6,2-1.6,3.7s-1.6,3.2-1.7,3.7c-0.1,0.4,0,0.5,0.2,0.7c0.2,0.2,1.1,0.8,1.7,1.2
				c0.7,0.4,1.6,0.7,1.6,0.7s1.2-2.9,1.5-3.6c0.3-0.7,0.5-1.2,0.3-1.9C19,22.8,17.3,18.9,17.3,18.9z"/>
			
				<linearGradient id="SVGID_00000022543551060677047640000017690104546392053693_" gradientUnits="userSpaceOnUse" x1="13.9919" y1="18.2497" x2="35.8985" y2="18.2497" gradientTransform="matrix(1 0 0 -1 0 51.8898)">
				<stop  offset="0" style="stop-color:#640E1A"/>
				<stop  offset="1" style="stop-color:#CF2332"/>
			</linearGradient>
			<path style="fill:url(#SVGID_00000022543551060677047640000017690104546392053693_);" d="M14,26.8c0,0,2.1,4.9,2.2,5.2
				c0.2,0.4,0.4,0.6,0.7,0.8c0.4,0.2,3.4,1.3,6,1.9c2.7,0.5,6.9,1.2,9.4,2.8c2.5,1.5,3.5,3,3.5,3s-2.1-5-2.5-5.8
				c-0.4-0.8-1.2-2-3.2-2.7s-7.3-1.8-8.4-2.1c-1.2-0.3-2.9-0.8-4.4-1.2C15.8,28.5,14,26.8,14,26.8z"/>
		</g>
		<g>
			<g>
				<g>
					<g>
						<path class="st7" d="M24,45.5c0,0,0.2,0,0.3,0c0.1,0,0.3,0,0.4,0v0.1c-0.1,0-0.1,0-0.1,0c-0.1,0-0.1,0-0.1,0.1s0,0.3,0,0.4
							c0,0.2,0,0.4,0,0.4c0,0.1,0,0.1,0.1,0.1c0,0,0.1,0,0.2,0v0.1c-0.1,0-0.2,0-0.4,0c-0.1,0-0.3,0-0.4,0v-0.1c0.1,0,0.1,0,0.1,0
							c0.1,0,0.1-0.1,0.1-0.1c0-0.1,0-0.2,0-0.5c0-0.2,0-0.3,0-0.4C24.1,45.5,24.1,45.5,24,45.5C24,45.6,24,45.6,24,45.5
							C24,45.6,24,45.5,24,45.5z"/>
					</g>
					<g>
						<path class="st7" d="M27.6,45.8C27.6,45.8,27.5,45.8,27.6,45.8c0-0.2,0.2-0.4,0.4-0.4c0.2,0,0.4,0.2,0.4,0.4
							c0,0.2-0.1,0.3-0.3,0.4c-0.1,0.2-0.2,0.2-0.3,0.3l0,0c0.1,0,0.3,0,0.4,0c0.1,0,0.1,0,0.2-0.2h0.1c0,0.1-0.1,0.3-0.1,0.4
							c0,0,0,0-0.1,0c-0.2,0-0.4,0-0.6,0h-0.1v-0.1c0.1-0.1,0.3-0.2,0.4-0.4c0.1-0.2,0.2-0.3,0.2-0.4c0-0.2-0.1-0.3-0.3-0.3
							C27.8,45.6,27.7,45.7,27.6,45.8z"/>
					</g>
					<g>
						<path class="st7" d="M24.9,47.3c0.4-0.2,0.7-0.5,0.8-0.8l0,0c-0.1,0.1-0.3,0.2-0.4,0.2c-0.3,0-0.4-0.2-0.4-0.5
							c0-0.2,0.1-0.4,0.3-0.5c0.1-0.1,0.3-0.1,0.4-0.1c0.4,0,0.5,0.4,0.5,0.7C26,46.7,25.6,47.2,24.9,47.3
							C24.9,47.4,24.9,47.3,24.9,47.3z M25,46c0,0.4,0.2,0.4,0.4,0.4c0.1,0,0.2,0,0.2-0.1l0.1-0.1c0-0.1,0-0.1,0-0.2
							c0-0.4-0.2-0.5-0.4-0.5C25.2,45.6,25,45.7,25,46z"/>
					</g>
					<g>
						<path class="st7" d="M26.3,47.3c0.4-0.2,0.7-0.5,0.8-0.8l0,0c-0.1,0.1-0.3,0.2-0.4,0.2c-0.3,0-0.4-0.2-0.4-0.5
							c0-0.2,0.1-0.4,0.3-0.5c0.1-0.1,0.3-0.1,0.4-0.1c0.4,0,0.5,0.4,0.5,0.7C27.3,46.7,26.9,47.2,26.3,47.3
							C26.3,47.4,26.3,47.3,26.3,47.3z M26.4,46c0,0.4,0.2,0.4,0.4,0.4c0.1,0,0.2,0,0.2-0.1l0.1-0.1c0-0.1,0-0.1,0-0.2
							c0-0.4-0.2-0.5-0.4-0.5C26.5,45.6,26.4,45.7,26.4,46z"/>
					</g>
				</g>
				<g>
					<path class="st0" d="M6.3,26.7c0-2.5,0.4-4.8,1.2-6.9H7.3c-0.8,2.1-1.2,4.5-1.2,6.9c0,9.8,7.1,17.9,16.5,19.5V46
						C13.3,44.4,6.3,36.4,6.3,26.7z"/>
					<path class="st0" d="M44.1,19.7c0.8,2.1,1.2,4.5,1.2,6.9c0,9.4-6.7,17.3-15.7,19.2V46c9-1.9,15.7-9.8,15.7-19.3
						C45.4,24.2,44.9,21.9,44.1,19.7L44.1,19.7L44.1,19.7z"/>
				</g>
			</g>
			<g>
				<path class="st7" d="M8.5,17.8L7.3,18L7,17.2c-0.1-0.1-0.1-0.3-0.1-0.4c0-0.1-0.1-0.2-0.1-0.4l-0.2,0.4l0,0l0,0
					c0,0,0.1,0.1,0.2,0.2c0.1,0.1,0.1,0.2,0.2,0.4c0,0.1,0.1,0.2,0.1,0.2c0,0.1,0.1,0.2,0.1,0.2c0,0.1,0,0.2,0.1,0.2
					c0,0.1,0,0.1,0,0.2l-0.5-0.3c-0.1,0.1-0.2,0.1-0.3,0c-0.1-0.1-0.2-0.1-0.2-0.2L6,18.2c0.1,0,0.2,0,0.3,0s0.2,0.1,0.3,0.1
					l1.3,0.6C7.9,18.9,8,19,8.1,19c0.1,0.2,0.1,0.3,0.2,0.4l0.3-0.4c-0.1,0-0.2,0-0.3,0S8.1,18.8,8,18.8l-0.6-0.3l0,0l0,0l0,0
					c0,0,0,0,0.1,0l1.2-0.2h0.1c0,0,0.1,0,0.1-0.1l0.2-0.4C9,17.9,8.9,18,8.8,18C8.7,17.8,8.6,17.8,8.5,17.8z"/>
				<path class="st7" d="M9.1,16.6l-1.2-0.8c-0.1-0.1-0.2-0.1-0.3-0.2c-0.1-0.1-0.2-0.1-0.2-0.2l-0.3,0.4c0.1,0,0.2,0,0.3,0.1
					c0.1,0,0.2,0.1,0.3,0.1l1.2,0.8C9,16.9,9.1,16.9,9.2,17c0.1,0.1,0.1,0.1,0.2,0.2l0.3-0.4c-0.1,0-0.2,0-0.3-0.1
					C9.3,16.7,9.2,16.6,9.1,16.6z"/>
				<path class="st7" d="M10.9,14.5L10.9,14.5h-0.2H9.5c0-0.1,0-0.2,0-0.3s0-0.2,0-0.3s0-0.2-0.1-0.3c0-0.1-0.1-0.2-0.2-0.2
					c-0.2,0-0.3,0-0.4,0s-0.3,0.1-0.4,0.3c-0.1,0.1-0.2,0.3-0.3,0.4c-0.1,0.2-0.2,0.3-0.3,0.4c0.1,0,0.2,0,0.3,0.1
					c0.1,0.1,0.2,0.1,0.3,0.2l1.2,0.9c0.1,0.1,0.2,0.1,0.2,0.2c0.1,0.1,0.1,0.2,0.2,0.3l0.4-0.4c-0.1,0-0.2,0-0.3-0.1
					c-0.1-0.1-0.2-0.1-0.3-0.2l-0.6-0.4L9.3,15h0.1h0.1c0.1,0,0.1,0,0.2,0h0.9c0.1,0,0.2,0,0.2,0c0.1,0,0.1-0.1,0.2-0.1l0.2-0.3
					C11,14.6,11,14.6,10.9,14.5C11,14.5,11,14.5,10.9,14.5z M9.2,14.8c0,0.1-0.1,0.1-0.1,0.2l-0.7-0.5c0,0-0.1,0-0.1-0.1
					c0,0-0.1,0-0.1-0.1l0.1-0.2C8.4,14,8.4,14,8.5,13.9c0.1-0.1,0.1-0.1,0.2-0.1c0.1,0,0.1,0,0.2,0c0.1,0,0.2,0.1,0.2,0.1
					c0.2,0.1,0.3,0.3,0.3,0.4C9.4,14.5,9.4,14.7,9.2,14.8z"/>
				<path class="st7" d="M11.3,13.5l-1.2-1c-0.1-0.1-0.2-0.1-0.2-0.2c-0.1-0.1-0.1-0.2-0.1-0.2l-0.4,0.4c0.1,0,0.2,0.1,0.3,0.1
					c0.1,0.1,0.2,0.1,0.2,0.2l1.2,1c0.1,0.1,0.2,0.1,0.2,0.2c0.1,0.1,0.1,0.2,0.1,0.2l0.4-0.4c-0.1,0-0.2-0.1-0.3-0.1
					C11.5,13.6,11.4,13.6,11.3,13.5z"/>
				<path class="st7" d="M13,11.9l-1.1-0.2v-0.9c0-0.1,0-0.3,0-0.4c0-0.1,0-0.2,0-0.4l-0.4,0.3l0,0l0,0c0,0,0.1,0.1,0.1,0.2
					s0,0.3,0,0.4c0,0.1,0,0.2,0,0.3s0,0.2,0,0.3s0,0.2,0,0.2c0,0.1,0,0.1-0.1,0.2l-0.4-0.4c-0.1-0.1-0.1-0.1-0.2-0.2
					C11,11.2,11,11.1,11,11l-0.4,0.4c0.1,0,0.2,0.1,0.3,0.1c0.1,0.1,0.1,0.2,0.2,0.3l1,1.1C12,12.9,12,13,12.1,13
					c0.1,0.1,0.1,0.2,0.1,0.3l0.4-0.4c-0.1,0-0.2-0.1-0.3-0.1c-0.1-0.1-0.2-0.1-0.2-0.2l-0.4-0.5l0,0l0,0l0,0c0,0,0,0,0.1,0l1.2,0.3
					h0.1h0.1l0.3-0.3c-0.1,0-0.2,0-0.3,0C13.2,12,13.1,12,13,11.9z"/>
				<path class="st7" d="M14.9,10.5l-1.1-0.4l0.1-0.9c0-0.1,0-0.3,0.1-0.4c0-0.1,0.1-0.2,0.1-0.4l-0.4,0.3l0,0l0,0c0,0,0,0.1,0,0.2
					c0,0.1,0,0.3,0,0.4c0,0.1,0,0.2,0,0.3c0,0.1,0,0.2,0,0.3s0,0.2-0.1,0.2c-0.1,0.1-0.1,0.2-0.1,0.2l-0.4-0.5
					c-0.1-0.1-0.1-0.2-0.2-0.3c-0.1-0.1-0.1-0.2-0.1-0.3l-0.4,0.4c0.1,0,0.2,0.1,0.2,0.2c0.1,0.1,0.1,0.2,0.2,0.2l0.9,1.2
					c0.1,0.1,0.1,0.2,0.2,0.3c0.1,0.1,0.1,0.2,0.1,0.3l0.4-0.4c-0.1,0-0.2-0.1-0.2-0.2c-0.1-0.1-0.1-0.2-0.2-0.2l-0.4-0.5l0,0l0,0
					l0,0c0,0,0,0,0.1,0L15,11h0.1h0.1l0.4-0.3c-0.1,0-0.2,0-0.3-0.1C15.1,10.6,15,10.6,14.9,10.5z"/>
				<path class="st7" d="M17.2,8.9c-0.2-0.2-0.4-0.3-0.5-0.4c-0.2-0.2-0.3-0.3-0.4-0.4c-0.2-0.2-0.3-0.3-0.4-0.4l-0.4,0.3l0.1,0.1
					c0,0.1,0.1,0.2,0.1,0.3c0,0.1,0,0.3,0.1,0.4c0,0.2,0,0.4,0.1,0.5c0,0.2,0,0.4,0,0.5s0,0.4,0,0.4c0,0.2,0,0.3,0,0.3v0.2l0.4-0.3
					L16,10.2c0-0.1-0.1-0.1-0.1-0.2c0-0.1,0-0.2-0.1-0.3c0-0.1,0-0.2,0-0.3c0-0.1,0-0.2,0-0.3l0.8-0.4l0.9,0.8l0.4-0.2l-0.2-0.1
					C17.5,9.2,17.4,9,17.2,8.9z M15.8,9.1l-0.1-0.9c0,0,0,0,0-0.1V8c0,0,0,0,0.1,0c0,0,0,0,0.1,0l0.6,0.6L15.8,9.1z"/>
				<path class="st7" d="M19.2,8.6c-0.1,0.1-0.2,0.1-0.3,0.2l-0.3,0.1L18,7.2C18,7.1,17.9,7,17.9,7c0-0.1,0-0.2,0-0.3l-0.5,0.2
					C17.5,7,17.5,7,17.5,7c0,0.1,0.1,0.2,0.1,0.3l0.4,1c0,0,0,0.1,0.1,0.2c0,0.1,0.1,0.2,0.1,0.3c0,0.1,0,0.2,0.1,0.3
					c0,0.1,0,0.2,0,0.2L19.2,8.6c0.2,0.1,0.3,0,0.3,0l-0.1-0.4C19.3,8.5,19.2,8.6,19.2,8.6z"/>
				<path class="st7" d="M21.2,8c-0.1,0.1-0.2,0.1-0.4,0.2l-0.4,0.1l-0.3-1.1h0.1c0.1,0,0.1,0,0.2-0.1c0.1,0,0.2-0.1,0.3-0.1
					S20.8,7,20.8,7c0.1-0.1,0.1-0.1,0.1-0.2c-0.2,0.1-0.3,0.1-0.4,0.2C20.3,7,20.2,7,20,7l-0.3-0.9l0.4-0.1c0.1,0,0.3-0.1,0.4-0.1
					s0.2,0,0.3,0.1l-0.1-0.3l-1.3,0.4c0.1,0.1,0.1,0.1,0.2,0.2c0,0.1,0.1,0.2,0.1,0.3L20,8c0,0.1,0,0.2,0.1,0.3c0,0.1,0,0.2,0,0.3
					l1.1-0.4C21.2,8.2,21.3,8.2,21.2,8c0.2,0.1,0.2,0.1,0.3,0V7.7C21.4,7.8,21.3,7.9,21.2,8z"/>
				<path class="st7" d="M24.7,4.9C24.8,4.9,24.8,4.9,24.7,4.9c0.1-0.1,0.2-0.2,0.2-0.3s0-0.1-0.1-0.1c0,0-0.1-0.1-0.2-0.1
					c-0.1,0-0.1,0-0.1,0.1c0,0-0.1,0.1-0.1,0.2s0,0.1,0.1,0.1C24.6,4.9,24.6,5,24.7,4.9z"/>
				<path class="st7" d="M23.9,5C24,5,24,5,23.9,5C24,4.9,24,4.8,24,4.7c0-0.1,0-0.1-0.1-0.1c0,0-0.1-0.1-0.2,0
					c-0.1,0-0.1,0-0.1,0.1c0,0-0.1,0.1-0.1,0.2s0,0.1,0.1,0.1C23.8,5,23.9,5,23.9,5z"/>
				<path class="st7" d="M25.5,7.1l-0.1-1.5c0-0.1,0-0.1,0-0.2s0-0.1,0-0.2s0-0.1,0-0.2V5h-0.5c0.1,0.1,0.1,0.2,0.1,0.3s0,0.2,0,0.3
					v0.6c0,0.1,0,0.2,0,0.3s0,0.2,0,0.3c0,0.1,0,0.3,0,0.4s0,0.2-0.1,0.3c0,0.1-0.1,0.1-0.2,0.2c-0.1,0-0.2,0.1-0.3,0.1
					c-0.3,0-0.4,0-0.5-0.2c-0.1-0.1-0.2-0.3-0.2-0.5l-0.1-1.2c0-0.1,0-0.1,0-0.2s0-0.1,0-0.2s0-0.1,0-0.2V5.1h-0.5
					c0.2,0.2,0.3,0.3,0.3,0.4s0,0.2,0,0.3l0.1,1.4c0,0.1,0,0.3,0.1,0.3c0,0.1,0.1,0.2,0.2,0.2c0.1,0.1,0.2,0.1,0.3,0.1s0.2,0,0.4,0
					c0.2,0,0.4-0.1,0.4-0.1c0.1-0.1,0.2-0.2,0.3-0.2l0,0l0,0l0,0v0.3l0.4-0.1c-0.1-0.1-0.1-0.2-0.1-0.3C25.5,7.3,25.5,7.2,25.5,7.1z
					"/>
				<path class="st7" d="M28.2,5.4c0,0.1,0,0.2,0,0.4l-0.1,1.4c0,0,0,0,0,0.1l0,0l0,0c0,0,0,0,0-0.1l-0.7-1.2c0-0.1-0.1-0.1-0.1-0.2
					s-0.1-0.2-0.1-0.2c0-0.1-0.1-0.2-0.1-0.2c0-0.1-0.1-0.1-0.1-0.2c0,0,0-0.1-0.1-0.1h-0.1h-0.4c0.1,0.1,0.1,0.2,0.1,0.3
					s0,0.2,0,0.3l-0.1,0.8c0,0.1,0,0.2,0,0.3c0,0.1,0,0.2,0,0.3c0,0.1,0,0.2-0.1,0.3c0,0.1-0.1,0.2-0.1,0.3h0.4c0-0.1,0-0.2-0.1-0.3
					c0-0.1,0-0.2,0-0.3c0-0.1,0-0.2,0-0.3c0-0.1,0-0.2,0-0.3l0.1-1V5.5c0,0,0,0,0,0.1L28,7.8h0.3c0-0.1,0-0.1,0-0.2s0-0.1,0-0.2
					l0.1-1.6c0-0.1,0-0.2,0.1-0.3c0-0.1,0.1-0.2,0.1-0.3h-0.4C28.2,5.3,28.2,5.4,28.2,5.4z"/>
				<path class="st7" d="M29.6,5.7c0,0.1,0,0.2,0,0.3l-0.3,1.5c0,0.1,0,0.2-0.1,0.3c0,0.1-0.1,0.2-0.1,0.3h0.4c0-0.1,0-0.2,0-0.3
					c0-0.1,0-0.2,0-0.3L29.8,6c0-0.1,0-0.2,0.1-0.3c0-0.1,0.1-0.2,0.1-0.3l-0.5-0.1C29.6,5.5,29.6,5.6,29.6,5.7z"/>
				<path class="st7" d="M32.9,6.3l-0.4-0.2c0,0.1,0,0.1,0,0.2s-0.1,0.2-0.1,0.3c-0.2,0-0.2,0.1-0.3,0.2S32,7,31.9,7.1
					c-0.1,0.1-0.2,0.2-0.3,0.4c-0.1,0.1-0.2,0.2-0.2,0.3c0,0.1-0.1,0.1-0.1,0.2c0,0,0,0.1-0.1,0.1c0,0,0,0-0.1,0V7.9
					c0-0.4,0-0.6,0-1s0-0.6,0-1V5.9c0,0,0-0.1-0.1-0.1l-0.4-0.1v0.2c0,0.2,0.1,0.4,0.1,0.5s0,0.4,0,0.6s0,0.4,0,0.6s0,0.4,0,0.5v0.2
					l0.3,0.1l0.2-0.2c0.1-0.2,0.3-0.4,0.4-0.4c0.1-0.2,0.3-0.4,0.4-0.4C32,7.2,32.2,7,32.3,7c0.1-0.2,0.3-0.3,0.4-0.4L32.9,6.3z"/>
				<path class="st7" d="M33.6,7.8l0.4-0.9L34.3,7c0.1,0.1,0.2,0.1,0.3,0.2c0.1,0.1,0.2,0.1,0.2,0.2l0.2-0.3l-1.2-0.5
					c0,0.1,0,0.2,0,0.3c0,0.1-0.1,0.2-0.1,0.3l-0.6,1.3c0,0.1-0.1,0.2-0.1,0.3c-0.1,0.1-0.1,0.2-0.2,0.2l1.1,0.4
					c0.1,0,0.1,0.1,0.2,0.1c0.1,0,0.1,0,0.2,0.1l0.2-0.4c-0.1,0-0.3,0.1-0.4,0c-0.1,0-0.3-0.1-0.4-0.1l-0.4-0.2l0.4-1h0.1
					c0.1,0,0.1,0.1,0.2,0.1c0.1,0,0.2,0.1,0.3,0.1c0.1,0,0.2,0,0.3,0c0.1,0,0.2,0,0.2-0.1c-0.2-0.1-0.3-0.1-0.4-0.2
					C33.8,7.8,33.7,7.8,33.6,7.8z"/>
				<path class="st7" d="M36.5,9.1c0.1,0,0.2-0.1,0.2-0.1c0.1-0.1,0.1-0.1,0.2-0.2c0.1-0.2,0.1-0.3,0.1-0.4S36.8,8.1,36.6,8
					c-0.2-0.1-0.3-0.2-0.4-0.2c-0.2-0.1-0.3-0.2-0.4-0.3c0,0.1,0,0.2-0.1,0.3c0,0.1-0.1,0.2-0.1,0.3l-0.6,1.2c0,0.1-0.1,0.2-0.2,0.3
					c-0.1,0.1-0.1,0.2-0.3,0.2l0.4,0.3c0-0.1,0-0.2,0.1-0.3c0-0.1,0.1-0.2,0.1-0.3l0.4-0.6c0.1,0,0.1,0.1,0.1,0.1s0,0.1,0.1,0.1v0.1
					c0,0.1,0,0.1,0,0.2l0.2,0.9c0,0.1,0,0.2,0,0.2c0,0.1,0.1,0.1,0.2,0.2l0.3,0.2c0-0.1,0-0.1,0-0.2v-0.1v-0.1v-0.1L36,9.1
					c0.1,0,0.2,0,0.3,0C36.4,9.2,36.5,9.1,36.5,9.1z M35.8,8.9c-0.1,0-0.1-0.1-0.2-0.1L36,8.1c0,0,0-0.1,0.1-0.1c0,0,0-0.1,0.1-0.1
					L36.4,8c0.1,0.1,0.2,0.1,0.2,0.2c0.1,0,0.1,0.1,0.1,0.2c0,0.1,0,0.1,0,0.2c0,0.1,0,0.2-0.1,0.3c-0.1,0.2-0.2,0.3-0.4,0.3
					C36,9,36,9,35.8,8.9z"/>
				<path class="st7" d="M38.3,10.8c0-0.1-0.1-0.2-0.1-0.3c-0.1-0.1-0.1-0.2-0.1-0.3S38,10.1,38,10s0-0.2,0.1-0.3
					c0.1-0.1,0.2-0.2,0.3-0.2s0.3,0,0.4,0.1c0.1,0,0.1,0.1,0.1,0.1l0.1,0.1c0,0,0,0.1,0.1,0.1c0,0.1,0,0.1,0,0.2l0.3-0.3
					c-0.1-0.1-0.2-0.1-0.3-0.2c-0.1-0.1-0.2-0.1-0.3-0.2c-0.1-0.1-0.2-0.1-0.3-0.2c-0.1,0-0.2-0.1-0.3-0.1c-0.1,0-0.2,0-0.3,0.1
					c-0.1,0-0.2,0.1-0.3,0.2c0,0.1-0.1,0.3-0.1,0.4c0,0.1,0,0.2,0,0.3s0.1,0.2,0.1,0.3c0.1,0.1,0.1,0.2,0.1,0.3
					c0,0.1,0.1,0.2,0.1,0.3s0,0.2-0.1,0.3c-0.1,0.1-0.2,0.2-0.4,0.2c-0.1,0-0.3,0-0.4-0.1s-0.2-0.1-0.2-0.2c0-0.1-0.1-0.1-0.1-0.2
					c0-0.1,0-0.1,0-0.2c0-0.1,0-0.1,0-0.2l-0.3,0.4c0,0,0.1,0.1,0.1,0.2c0,0.1,0.1,0.1,0.1,0.2c0,0.1,0.1,0.1,0.1,0.2l0.1,0.1
					c0.1,0.1,0.2,0.1,0.3,0.2c0.1,0,0.2,0.1,0.4,0.1c0.1,0,0.2,0,0.4-0.1c0.1,0,0.2-0.1,0.3-0.2c0.1-0.1,0.1-0.2,0.1-0.3
					C38.4,11,38.3,10.9,38.3,10.8z"/>
				<path class="st7" d="M40.1,11c0.1,0,0.2-0.1,0.3-0.1l-0.4-0.4c0,0.1-0.1,0.2-0.1,0.3c-0.1,0.1-0.1,0.2-0.2,0.2l-1,1.1
					c-0.1,0.1-0.1,0.1-0.2,0.2c-0.1,0.1-0.2,0.1-0.2,0.1l0.4,0.4c0-0.1,0.1-0.2,0.1-0.3c0.1-0.1,0.1-0.2,0.2-0.2l1-1.1
					C40.1,11.1,40.1,11,40.1,11z"/>
				<path class="st7" d="M41.9,12.7L41.9,12.7l0.2,0.2c0,0,0.1,0,0.1,0.1c0.1,0,0.1,0,0.1,0l-1.3-1.5l-0.3,0.2c0.1,0,0.1,0,0.2,0.1
					l0.1,0.1l0.4,0.4L40,13.5c-0.1,0.1-0.2,0.1-0.2,0.2c-0.1,0.1-0.2,0.1-0.3,0.1l0.4,0.4c0-0.1,0.1-0.2,0.1-0.2
					c0.1-0.1,0.1-0.1,0.2-0.2l1.3-1.2L41.9,12.7z"/>
				<path class="st7" d="M41.7,15.9c-0.1-0.1-0.2-0.2-0.3-0.3l-0.3-0.4l0.9-0.6l0.1,0.1c0,0.1,0.1,0.1,0.1,0.2
					c0.1,0.1,0.1,0.1,0.2,0.2c0.1,0.1,0.1,0.1,0.2,0.2c0.1,0,0.1,0.1,0.2,0.1c-0.1-0.1-0.2-0.3-0.3-0.4c-0.1-0.1-0.2-0.3-0.3-0.4
					l0.8-0.5l0.2,0.3c0.1,0.1,0.1,0.2,0.2,0.3c0,0.1,0.1,0.2,0.1,0.3l0.3-0.2l-0.9-1.2c0,0.1-0.1,0.2-0.2,0.2
					c-0.1,0.1-0.2,0.1-0.2,0.2l-1.2,0.9c-0.1,0.1-0.2,0.1-0.3,0.2c-0.1,0.1-0.2,0.1-0.3,0.1l0.6,1c0,0.1,0.1,0.1,0.1,0.2
					c0,0.1,0.1,0.1,0.1,0.2l0.4-0.2C41.9,16,41.7,16,41.7,15.9z"/>
				<path class="st7" d="M43.6,17.5c0.1-0.1,0.1-0.2,0.1-0.3c0-0.1,0-0.2,0-0.4c0-0.1,0-0.2,0-0.4c0-0.1,0-0.2,0.1-0.3
					c0-0.1,0.1-0.2,0.2-0.2c0.1-0.1,0.3-0.1,0.4,0c0.1,0.1,0.2,0.1,0.3,0.3c0,0.1,0.1,0.1,0.1,0.2s0,0.1,0,0.2c0,0.1,0,0.1,0,0.2
					s0,0.1,0,0.2l0.4-0.2c-0.1-0.1-0.1-0.2-0.2-0.3c0-0.1-0.1-0.2-0.2-0.3c-0.1-0.1-0.1-0.2-0.2-0.3c-0.1-0.1-0.2-0.1-0.3-0.2
					c-0.1,0-0.2-0.1-0.3-0.1c-0.1,0-0.2,0-0.3,0.1c-0.1,0.1-0.2,0.1-0.3,0.2s-0.1,0.2-0.1,0.3c0,0.1,0,0.2,0,0.4c0,0.1,0,0.2,0,0.4
					c0,0.1,0,0.2-0.1,0.3c0,0.1-0.1,0.2-0.2,0.2c-0.2,0.1-0.3,0.1-0.4,0.1c-0.1-0.1-0.3-0.2-0.3-0.3c-0.1-0.1-0.1-0.2-0.1-0.3
					c0-0.1,0-0.2,0-0.2c0-0.1,0-0.1,0.1-0.2c0-0.1,0-0.1,0.1-0.2L42,16.7c0,0.1,0,0.1,0,0.2c0,0.1,0,0.1,0.1,0.2
					c0,0.1,0,0.1,0.1,0.2c0,0.1,0.1,0.1,0.1,0.2c0.1,0.1,0.1,0.2,0.2,0.3s0.2,0.2,0.3,0.2c0.1,0.1,0.2,0.1,0.4,0.1
					c0.1,0,0.2,0,0.4-0.1C43.4,17.7,43.5,17.6,43.6,17.5z"/>
				<path class="st7" d="M45.1,17.9c-0.1,0-0.2,0.1-0.3,0.1l-1.3,0.6c-0.1,0-0.2,0.1-0.3,0.1c-0.1,0-0.2,0-0.3,0l0.2,0.4
					c0.1-0.1,0.1-0.1,0.2-0.2c0.1,0,0.2-0.1,0.3-0.1l1.3-0.6c0.1,0,0.2-0.1,0.3-0.1c0.1,0,0.2,0,0.3,0l-0.2-0.4
					C45.3,17.8,45.2,17.8,45.1,17.9z"/>
				<path class="st7" d="M29.8,5.3C29.9,5.3,29.9,5.3,29.8,5.3C29.9,5.2,30,5.1,29.9,5c0-0.1,0-0.1-0.1-0.1c0,0-0.1-0.1-0.2,0
					c-0.1,0-0.1,0-0.1,0.1c0,0-0.1,0.1,0,0.2c0,0.1,0,0.1,0.1,0.1S29.8,5.3,29.8,5.3z"/>
				<path class="st7" d="M40.4,10.6C40.5,10.6,40.5,10.6,40.4,10.6c0.1-0.1,0.2-0.2,0.1-0.3c0-0.1,0-0.1-0.1-0.1c0,0-0.1-0.1-0.2,0
					c-0.1,0-0.1,0-0.1,0.1c0,0-0.1,0.1,0,0.2c0,0.1,0,0.1,0.1,0.1S40.4,10.6,40.4,10.6z"/>
				<path class="st7" d="M45.9,17.7c0,0-0.1-0.1-0.2,0c-0.1,0-0.1,0-0.1,0.1c0,0-0.1,0.1-0.1,0.2c0,0.1,0,0.1,0.1,0.1
					c0,0,0.1,0.1,0.2,0.1s0.1,0,0.1-0.1c0,0,0.1-0.1,0-0.2C46,17.8,46,17.7,45.9,17.7z"/>
			</g>
		</g>
	</g>
</g>
</svg>
