<?xml version="1.0" encoding="utf-8"?>
<!-- Generator: Adobe Illustrator 27.6.1, SVG Export Plug-In . SVG Version: 6.00 Build 0)  -->
<svg version="1.1" id="Layer_1" xmlns="http://www.w3.org/2000/svg" xmlns:xlink="http://www.w3.org/1999/xlink" x="0px" y="0px"
	 viewBox="0 0 52 52" style="enable-background:new 0 0 52 52;" xml:space="preserve">
<style type="text/css">
	.st0{fill:#F6861F;}
</style>
<g>
	<path class="st0" d="M27,29.1c0.1,0.3,0.1,0.6,0.2,0.7c0.1,0.4,0,0.7-0.1,0.8c-0.1,0.5-0.4,0.7-0.7,1.1c-0.1,0.1-0.2,0.2-0.4,0.3
		c-0.2,0.1-0.4,0-0.5-0.1c-0.4-0.3-0.6-0.6-0.7-0.8c-0.1-0.3-0.2-0.5-0.3-0.7c-0.1-0.4,0-0.7,0-0.9c0-0.2,0.1-0.4,0.1-0.5
		c-0.1-0.1-0.1-0.1-0.2-0.1c-0.8-0.4-1.6-0.8-1.9-1.9c-0.4-0.9-0.7-1.9-0.8-2.8c-0.3-0.8-0.5-1.7-0.6-2.5c-0.1-0.7-0.3-1.3-0.3-2
		c0-0.6,0.1-1,0.2-1.5c0.3-1,0.7-2,1.1-2.9c0.4-0.7,0.7-1.2,1-1.8c0.4-0.6,0.7-0.9,1.4-1.3c0.7-0.5,1.3-0.5,2,0s1.3,1.1,1.8,1.9
		c0.7,0.8,1,1.9,1.4,2.8c0.3,0.7,0.5,1.3,0.6,2c0.1,0.5,0.1,0.9,0,1.4c0,0.7-0.2,1.2-0.3,1.9c-0.1,0.6-0.2,1-0.4,1.6
		c-0.2,0.6-0.3,1-0.5,1.6c-0.2,0.7-0.4,1.2-0.7,1.8c-0.4,0.7-0.8,1.4-1.7,1.8C27.3,29,27.2,29,27,29.1z M28.3,18.5
		c0.1-1.3-1-2.3-2.3-2.3s-2.3,1-2.3,2.3s1,2.2,2.2,2.3C27.4,20.9,28.5,19.7,28.3,18.5z"/>
	<path class="st0" d="M13.2,37.4c0-0.7,0-1.3,0-2c0-0.2,0-0.4,0.1-0.5c0.1-0.2,0.2-0.3,0.4-0.3c0.6,0,1.1-0.1,1.7,0s0.9,0.3,1.2,0.8
		c0.1,0.2,0.2,0.5,0.2,0.7c0,0.7,0,1.6,0,2.3c0,0.6-0.3,0.9-0.7,1.2c-0.3,0.1-0.6,0.2-0.7,0.2c-0.6,0-0.9,0-1.5,0
		c-0.3,0-0.5-0.2-0.5-0.5c0-0.7,0-1.3,0-2C13.2,37.5,13.2,37.5,13.2,37.4L13.2,37.4z M14.1,39.1C14.2,39.2,14.2,39.2,14.1,39.1
		c0.5,0,0.7,0.1,1,0c0.3-0.1,0.5-0.4,0.5-0.6c0-0.8,0-1.7,0-2.5c0-0.3-0.2-0.6-0.5-0.7c-0.4-0.1-0.7,0-0.9-0.1l0,0
		C14.1,36.7,14.1,37.9,14.1,39.1z"/>
	<path class="st0" d="M37.5,37.6c0,0.1,0,0.2,0.1,0.2c0.3,0.6,0.7,1,0.8,1.6c0.1,0.2,0.1,0.3,0,0.4c-0.1,0.1-0.2,0.2-0.3,0.2
		c-0.2,0.1-0.4,0-0.5-0.2c-0.2-0.3-0.4-0.7-0.5-0.8c-0.2-0.4-0.4-0.7-0.6-1c0-0.1-0.1-0.1-0.1-0.1c-0.2,0-0.5,0-0.7,0
		c-0.1,0.1,0,0.1,0,0.2c0,0.5,0,0.9,0,1.4v0.1c0,0.5-0.2,0.6-0.7,0.5c-0.2,0-0.3-0.2-0.3-0.3c0-0.1,0-0.3,0-0.4c0-1.4,0-2.7,0-4.1
		c0-0.5,0.1-0.6,0.6-0.6c0.6,0,0.9,0,1.5,0c0.5,0.1,0.8,0.2,1.1,0.7c0.1,0.2,0.2,0.4,0.2,0.6c0.1,0.4,0.1,0.7,0,1
		C38.3,37.3,38,37.5,37.5,37.6C37.6,37.5,37.6,37.6,37.5,37.6C37.6,37.6,37.6,37.6,37.5,37.6z M36,37.1c0.4,0,0.7,0,1,0
		c0.2,0,0.3-0.1,0.4-0.2c0.3-0.3,0.3-0.7,0.2-0.9c-0.1-0.2-0.2-0.4-0.5-0.5c-0.4-0.1-0.7-0.1-1.1-0.1l0,0C36,36,36,36.5,36,37.1z"/>
	<path class="st0" d="M12.1,37.3c0,0.5,0,0.8,0,1.3C12,39.3,11.8,39.7,11,40c-0.5,0.2-0.8,0.2-1.3,0c-0.7-0.3-0.8-0.7-0.8-1.3
		c-0.1-0.8,0-1.7,0-2.5c0-0.7,0.5-1.2,1.1-1.4c0.6-0.1,0.9-0.1,1.4,0.2c0.6,0.3,0.7,0.7,0.7,1.1C12.1,36.5,12.1,36.9,12.1,37.3z
		 M11.2,37.4L11.2,37.4c0-0.4,0-0.7,0-1.1c0-0.3-0.1-0.5-0.3-0.7c-0.2-0.2-0.7-0.2-0.8,0c-0.3,0.2-0.4,0.4-0.4,0.7s0,0.7,0,0.8
		c0,0.5,0,0.9,0,1.4c0,0.5,0.3,0.7,0.7,0.7c0.1,0,0.2,0,0.3,0c0.1,0,0.2-0.1,0.3-0.1c0.2-0.2,0.3-0.4,0.3-0.6
		C11.3,38.2,11.2,37.7,11.2,37.4z"/>
	<path class="st0" d="M33.9,37.5c0,0.4,0,0.7,0,1.1c-0.1,0.7-0.5,1.1-1.1,1.3c-0.6,0.2-0.9,0.1-1.4-0.1c-0.6-0.2-0.7-0.7-0.7-1.1
		c0-0.2,0-0.5,0-0.7c0-0.7,0-1.5,0-2.2c0.1-0.7,0.5-1,1.1-1.2c0.5-0.1,0.8-0.1,1.3,0.1c0.5,0.2,0.7,0.5,0.7,0.8
		c0.1,0.3,0.1,0.5,0.1,0.7C33.9,36.8,33.9,37.1,33.9,37.5z M33,37.4L33,37.4c0-0.4,0-0.7,0-1c0-0.6-0.2-0.7-0.7-0.7
		c-0.4,0-0.7,0.2-0.7,0.7c0,0.1,0,0.3,0,0.4c0,0.7,0,1.3,0,2c0,0.1,0,0.2,0,0.4c0.1,0.4,0.4,0.7,0.7,0.6c0.1,0,0.2,0,0.3,0
		c0.4,0,0.7-0.2,0.7-0.6c0-0.1,0-0.2,0-0.4C33,38,33,37.7,33,37.4z"/>
	<path class="st0" d="M6.5,37.1c0.3,0.5,0.6,0.7,0.7,1.2c0.3,0.4,0.6,0.7,0.7,1l0,0c0.1,0.2,0.2,0.3,0.1,0.5C8,40,7.9,40.1,7.6,40.1
		c-0.2,0-0.3-0.1-0.4-0.2c-0.3-0.5-0.6-0.8-0.8-1.3c-0.2-0.3-0.4-0.5-0.5-0.7l-0.1-0.1c-0.1,0.2-0.4,0.4-0.3,0.8c0,0.4,0,0.7,0,1
		S5.3,40.1,5,40.1c-0.3,0-0.5-0.2-0.5-0.5c0-1.5,0-3,0-4.5c0-0.3,0.2-0.5,0.5-0.5s0.5,0.1,0.6,0.4c0,0.5,0,0.7,0,1.2
		c0,0.2,0,0.4,0,0.5c0,0.1,0,0.1,0.1,0.2c0.1-0.1,0.2-0.2,0.3-0.3c0.4-0.6,0.7-0.9,1.1-1.5c0.1-0.2,0.2-0.4,0.4-0.5
		c0.2-0.1,0.3-0.1,0.4,0c0.3,0.2,0.4,0.5,0.1,0.7c-0.4,0.5-0.7,0.8-1,1.4C6.5,36.9,6.5,37,6.5,37.1z"/>
	<path class="st0" d="M25,36.9c0,0.6,0,1.1,0,1.7c0,0.7-0.5,1.2-1.1,1.4c-0.6,0.1-0.9,0.1-1.4-0.1c-0.6-0.2-0.7-0.7-0.8-1.1
		c0-0.3-0.1-0.6-0.1-0.7c0-0.9,0-2,0-2.9c0-0.2,0.1-0.4,0.3-0.5c0.2-0.1,0.4-0.1,0.6,0s0.2,0.3,0.2,0.5c0,0.4,0,0.7,0,1.1
		c0,0.7,0,1.4,0,2.1c0,0.2,0,0.3,0.1,0.5c0,0.2,0.2,0.3,0.3,0.4c0.4,0.1,0.7,0.2,1-0.1c0.2-0.2,0.2-0.4,0.3-0.6c0-0.2,0-0.4,0-0.5
		c0-0.9,0-2,0-3c0-0.2,0.1-0.4,0.3-0.4c0.3-0.1,0.6,0,0.7,0.2c0.1,0.1,0.1,0.2,0.1,0.4C25,35.7,25,36.3,25,36.9z"/>
	<path class="st0" d="M42.9,36.9c0,0.6,0,1,0,1.6c0,0.6-0.2,1-0.7,1.3c-0.5,0.3-0.9,0.4-1.5,0.3c-0.4-0.1-0.7-0.2-0.8-0.5
		c-0.3-0.3-0.4-0.6-0.4-0.8s0-0.5,0-0.7c0-0.9,0-2,0-2.9c0-0.3,0.2-0.5,0.5-0.5c0.3,0,0.5,0.1,0.5,0.5c0,0.5,0,0.8,0,1.3
		c0,0.7,0,1.2,0,1.9c0,0.2,0,0.4,0.1,0.6c0.1,0.3,0.4,0.5,0.7,0.5c0.1,0,0.2,0,0.3,0c0.5,0,0.7-0.3,0.7-0.7c0-0.7,0-1.2,0-1.9
		c0-0.6,0-1,0-1.7c0-0.3,0.2-0.5,0.6-0.4c0.3,0,0.4,0.2,0.4,0.5C42.9,35.7,42.9,36.2,42.9,36.9z"/>
	<path class="st0" d="M43.9,40c-0.1-0.2,0-0.4,0.1-0.5c0.2-0.3,0.4-0.7,0.5-0.8c0.3-0.5,0.6-0.8,0.7-1.3c0.3-0.6,0.7-1,0.8-1.7
		c0-0.1,0.1-0.1,0.1-0.2c0-0.1-0.1,0-0.2,0c-0.6,0-1,0-1.6,0c-0.3,0-0.6-0.4-0.4-0.7c0.1-0.1,0.2-0.2,0.3-0.2c0.1,0,0.2,0,0.3,0
		c0.7,0,1.5,0,2.2,0c0.1,0,0.2,0,0.4,0c0.2,0,0.2,0.1,0.2,0.3c0,0.1,0,0.2-0.1,0.3c-0.3,0.5-0.6,0.8-0.7,1.3
		c-0.4,0.7-0.7,1.4-1.1,2.1c-0.1,0.2-0.2,0.3-0.3,0.5c0,0.1-0.1,0.1,0,0.2c0.1,0,0.1,0,0.2,0c0.7,0,1.1,0,1.8,0
		c0.4,0,0.5,0.2,0.5,0.5c0,0.2-0.2,0.4-0.4,0.4c-0.6,0-1,0-1.6,0c-0.5,0-0.8,0-1.3,0C44.1,40.1,44,40.1,43.9,40z"/>
	<path class="st0" d="M27.9,37c0.1-0.1,0.2-0.3,0.2-0.4c0.3-0.6,0.7-1.1,0.8-1.7c0.1-0.2,0.2-0.3,0.5-0.2c0.1,0,0.2,0.1,0.3,0.1
		c0.2,0.1,0.3,0.3,0.1,0.5c-0.2,0.3-0.3,0.6-0.5,0.7c-0.4,0.7-0.7,1.1-0.9,1.8c0,0.1,0,0.2,0,0.3c0,0.6,0,1,0,1.6
		c0,0.2-0.1,0.4-0.3,0.5s-0.4,0.1-0.6,0c-0.1-0.1-0.2-0.2-0.2-0.4c0-0.6,0-1,0-1.6c0-0.2-0.1-0.4-0.2-0.5c-0.4-0.7-0.7-1.3-1.1-2
		c-0.1-0.2-0.2-0.4-0.3-0.5s0-0.2,0.1-0.3c0.2-0.2,0.4-0.2,0.7-0.2c0.1,0,0.2,0.1,0.2,0.2c0.3,0.5,0.6,0.9,0.7,1.4
		c0.1,0.2,0.2,0.4,0.3,0.6C27.7,36.9,27.8,37,27.9,37z"/>
	<path class="st0" d="M18.6,39.1c0.1,0.1,0.2,0.1,0.2,0.1c0.5,0,0.8,0,1.3,0c0.1,0,0.2,0,0.2,0c0.3,0,0.4,0.2,0.4,0.5
		c0,0.2-0.2,0.4-0.5,0.4c-0.7,0-1.4,0-2.2,0c-0.3,0-0.5-0.1-0.5-0.5c0-0.2,0-0.3,0-0.5c0-1.3,0-2.5,0-3.8c0-0.1,0-0.3,0-0.4
		s0.1-0.2,0.1-0.2c0.2-0.1,0.4-0.2,0.6-0.1c0.2,0.1,0.3,0.3,0.3,0.5c0,1.3,0,2.6,0,3.8C18.6,39,18.6,39.1,18.6,39.1z"/>
	<path class="st0" d="M31,26.7c0,0.8-0.3,1.7-0.7,2.3c-0.3,0.6-0.7,0.8-1.1,1.2c-0.1,0.1-0.2,0.2-0.3,0.2c-0.1,0.1-0.2,0-0.3,0
		c-0.1-0.1-0.2-0.2-0.1-0.3c0.2-0.5,0.4-0.8,0.6-1.3c0.2-0.6,0.4-1.1,0.7-1.7c0.3-0.7,0.5-1.3,0.7-2c0-0.1,0.1-0.2,0.2-0.2
		c0.1,0,0.2,0.1,0.2,0.2c0.1,0.3,0.2,0.6,0.2,0.8C31,26.3,31,26.5,31,26.7z"/>
	<path class="st0" d="M23.6,30.3c-0.1,0.1-0.2,0.2-0.3,0.3c-0.1,0-0.2-0.1-0.3-0.1c-0.6-0.4-0.9-0.7-1.3-1.4
		c-0.5-0.7-0.7-1.6-0.7-2.4c0-0.5,0.1-0.8,0.2-1.2c0-0.1,0.1-0.2,0.3-0.2c0.1,0,0.2,0.1,0.2,0.2c0.2,0.6,0.5,1.1,0.7,1.7
		c0.3,0.7,0.6,1.5,0.7,2.2c0.1,0.4,0.3,0.7,0.4,0.9C23.5,30.2,23.5,30.2,23.6,30.3z"/>
</g>
</svg>
