<?xml version="1.0" encoding="utf-8"?>
<!-- Generator: Adobe Illustrator 27.6.1, SVG Export Plug-In . SVG Version: 6.00 Build 0)  -->
<svg version="1.1" id="Layer_1" xmlns="http://www.w3.org/2000/svg" xmlns:xlink="http://www.w3.org/1999/xlink" x="0px" y="0px"
	 viewBox="0 0 52 52" style="enable-background:new 0 0 52 52;" xml:space="preserve">
<style type="text/css">
	.st0{fill:#30A9E0;}
	.st1{fill:#C4C4C4;}
</style>
<g>
	<path class="st0" d="M45,29c-0.9-0.2-1.6-0.6-2.2-1.2c-0.1-0.1-0.2-0.1-0.3-0.1c-10.8,0-21.7,0-32.5,0c-0.3,0-0.5,0.1-0.7,0.2
		c-1.1,0.9-2.3,1.2-3.7,1.1c0,0-0.1,0-0.1,0c0,0,0,0,0,0l0,0c-0.6-0.1-1.2-0.2-1.8-0.6c-1.1-0.7-1.9-1.7-2.2-3c0-0.1,0-0.2,0-0.3
		c0-0.1,0-0.1-0.1-0.2c0,0.1,0,0.2,0,0.2c0,0,0,0,0,0c0-0.4,0-0.8,0-1.3c0.1,0,0.1-0.1,0.1-0.2c0-0.1,0-0.2,0-0.3c0-0.1,0-0.1,0-0.2
		c0,0,0,0,0,0c0.2-0.8,0.6-1.5,1.2-2.1c0.8-0.9,1.9-1.3,3-1.4c0.4,0,0.7,0,1,0.2c0.5,0.3,0.7,1.3,0.1,1.8c-0.3,0.2-0.6,0.3-1,0.4
		c-0.6,0.1-1.1,0.3-1.5,0.7c-0.6,0.7-0.8,1.5-0.5,2.3c0.3,0.9,1,1.4,1.9,1.5l0,0l0,0c0,0,0.1,0,0.1,0c0,0,0,0,0,0
		c0.4,0,0.8-0.1,1.2-0.3c0.7-0.4,1.2-0.9,1.3-1.7c0,0,0,0,0,0c0-0.1,0-0.1,0-0.2c0-0.9,0-1.8,0-2.8c0-1.9,0-3.8,0-5.7
		c0-0.1,0-0.1,0-0.2c0-0.5,0.3-0.9,0.7-1.1c0.1,0,0.1,0,0.1-0.1c0.1,0,0.3,0,0.4,0c0.1,0,0.2,0.1,0.3,0.1c0.3,0.1,0.6,0.4,0.7,0.7
		c0.1,0.2,0.1,0.4,0.1,0.6c0,0,0,0,0,0c0,0.4,0,0.8,0,1.3c0,2.2,0,4.5,0,6.7c0,0.2,0,0.5,0,0.7c0,0.2-0.1,0.3,0,0.5c0,0,0.1,0,0.1,0
		c0.7,0,1.4,0,2.1,0c0.3,0,0.6,0,1,0c0,0,0,0,0-0.1c-0.2-0.5-0.4-0.9-0.5-1.5c0,0,0,0,0-0.1c-0.1-0.4-0.1-0.9,0-1.3l0,0l0,0
		c0,0,0,0,0-0.1c0,0,0,0,0,0c0.3-1.7,1.6-3.2,3.4-3.6c0,0,0,0,0,0c0.5-0.1,0.9-0.1,1.4-0.1l0,0l0,0c0.2,0,0.4,0.1,0.6,0.1
		c1.6,0.4,2.7,1.4,3.2,3c0.4,1.2,0.3,2.3-0.4,3.3c0,0-0.1,0.1,0,0.2c1.1,0,2.3,0,3.5,0c0.1-0.6,0.2-1.1,0.3-1.7c0,0,0,0,0,0
		c0-0.2,0.1-0.5,0.1-0.7l0,0l0,0c0,0,0-0.1,0-0.1c0.1-0.6,0.5-1,1.1-1c0.6,0,1.1,0.3,1.3,0.8c0.1,0.2,0.1,0.5,0,0.7l0,0c0,0,0,0,0,0
		c-0.1,0.6-0.2,1.2-0.3,1.9c0,0,0,0,0,0l0,0c0,0.1,0.1,0.1,0.1,0.1c0.6,0,1.2,0,1.7,0c0.1,0,0.1,0,0.2,0c0-0.2,0.1-0.4,0.1-0.6
		c0,0,0,0,0-0.1c0.1-0.5,0.2-1,0.2-1.5c0,0,0,0,0-0.1c0-0.2,0-0.4,0.1-0.6c0.3-0.6,0.9-0.9,1.5-0.7c0.6,0.2,1,0.8,0.9,1.4
		c-0.1,0.5-0.2,1.1-0.3,1.6c0,0.2-0.1,0.3-0.1,0.5c0.3,0,0.7,0,1,0c0-0.1,0-0.3,0.1-0.4c0,0,0,0,0,0c0.1-0.5,0.2-1,0.2-1.5
		c0,0,0,0,0-0.1c0-0.3,0.1-0.6,0.1-1c0,0,0,0,0,0c0-0.1,0-0.3,0.1-0.4c0.1-0.7,0.7-1.2,1.3-1.1c0.7,0.1,1.1,0.7,1.1,1.4
		c-0.1,0.7-0.2,1.5-0.3,2.2c0,0.3-0.1,0.5-0.1,0.8c0,0,0,0,0,0l0,0c0,0,0,0,0,0c0.3,0,0.6,0,0.9,0c0,0,0,0,0.1,0
		c0.1-0.1,0.1-0.2,0.1-0.3c0,0,0,0,0,0c0-0.2,0.1-0.3,0.1-0.5c0,0,0,0,0-0.1c0.1-0.4,0.1-0.9,0.2-1.3c0,0,0,0,0,0c0-0.1,0-0.1,0-0.2
		c0,0,0,0,0-0.1c0.1-0.3,0.1-0.7,0.2-1l0,0c0,0,0,0,0,0c0,0,0,0,0-0.1c0,0,0,0,0,0c0-0.2,0-0.4,0.1-0.5c0.2-0.7,1-1.1,1.7-0.7
		c0.5,0.2,0.8,0.8,0.7,1.4c-0.2,1-0.3,2-0.5,3c0,0.2-0.1,0.3-0.1,0.5c0.8,0,1.5,0,2.3,0c0-0.4-0.1-0.8,0-1.2c0,0,0,0,0,0
		c0-0.1,0-0.2,0-0.3c0.2-1.5,1-2.7,2.3-3.4c0.6-0.3,1.2-0.5,1.8-0.6c0,0,0,0,0,0c0.3,0,0.6,0,0.8,0l0,0l0,0c0.8,0.1,1.5,0.3,2.2,0.7
		c1.1,0.7,1.7,1.6,2,2.9c0.1,0.2,0.1,0.4,0.1,0.6c0,0.2,0,0.5,0,0.7c-0.1,0.1-0.1,0.3-0.1,0.4c0,0,0,0.1,0,0.1c0,0,0,0,0,0
		c-0.1,0.5-0.2,1-0.5,1.5c-0.8,1.3-2,2.2-3.6,2.4c0,0,0,0,0,0c-0.3,0-0.6,0-0.9,0c0,0,0,0,0,0c0,0,0,0-0.1,0c0,0,0,0-0.1,0
		c0,0-0.1,0-0.1,0c0,0,0,0,0,0C45.2,29,45.1,29,45,29C45.1,29,45.1,29,45,29z M19.8,23.4c0-0.1,0-0.1,0-0.2l0,0c0,0,0,0,0,0
		c0-0.1,0-0.2,0-0.3c0,0,0,0,0,0c0,0,0,0,0,0c-0.1-1.2-1.3-2.1-2.5-1.9c0,0,0,0,0,0c-0.3,0-0.5,0.1-0.7,0.3
		c-0.8,0.5-1.2,1.5-0.9,2.4c0.3,0.9,1.2,1.6,2.1,1.5c0.1,0,0.1,0,0.2,0C18.9,25,19.6,24.3,19.8,23.4C19.8,23.4,19.8,23.4,19.8,23.4
		C19.8,23.4,19.8,23.4,19.8,23.4z M46.1,26.6c0.1,0,0.1,0,0.2,0c1-0.1,1.9-1,2-2c0.1-1.5-1.2-2.6-2.6-2.4c-1.1,0.2-2,1.3-1.9,2.4
		C43.9,25.8,44.9,26.7,46.1,26.6z"/>
	<path class="st1" d="M1.3,31.9c0.1,0,0.1-0.1,0.1-0.2c0-0.2,0.1-0.3,0.3-0.4c0.2-0.1,0.4-0.1,0.6,0.1c0.1,0.1,0.2,0.2,0.2,0.4
		c0.8-0.7,1.6-0.7,2.4,0.1c0.1-0.1,0.2-0.2,0.4-0.3c0.5-0.4,1.4-0.4,1.9,0.1c0.3,0.2,0.4,0.5,0.4,0.9c0.1,0.8,0,1.5,0,2.3
		c0,0.1,0,0.3,0,0.4c0,0.3-0.3,0.5-0.5,0.5c-0.3,0-0.5-0.1-0.6-0.4c-0.1-0.2-0.1-0.3-0.1-0.5c0-0.7,0-1.3,0-2c0-0.1,0-0.1,0-0.2
		c-0.1-0.5-0.6-0.6-0.9-0.3c-0.2,0.2-0.3,0.4-0.3,0.6c-0.1,0.6,0,1.3,0,1.9c0,0.1,0,0.2,0,0.2c-0.1,0.3-0.3,0.5-0.6,0.5
		c-0.3,0-0.5-0.2-0.5-0.5c0-0.3,0-0.6,0-0.9c0-0.5,0-1,0-1.4c0-0.4-0.3-0.6-0.7-0.5c-0.3,0.1-0.4,0.2-0.5,0.5
		c-0.1,0.2-0.1,0.4-0.1,0.6c0,0.5,0,1.1,0,1.6c0,0.3-0.1,0.5-0.4,0.6c-0.3,0.2-0.7,0-0.8-0.4c0,0-0.1,0-0.1,0
		C1.3,34.2,1.3,33.1,1.3,31.9z"/>
	<path class="st1" d="M28.4,37.3c0,0,0-0.1-0.1-0.1c-0.2-0.1-0.2-0.3-0.2-0.5c0-0.4,0-0.9,0-1.3c0-0.1,0-0.1,0-0.2
		c-0.1,0-0.1,0-0.1,0.1c-0.8,0.6-1.8,0.6-2.5-0.1c-0.3-0.3-0.5-0.7-0.5-1.1c-0.1-0.5,0-1,0.1-1.5c0.3-0.7,0.9-1.2,1.6-1.2
		c0.5,0,0.9,0.1,1.2,0.5c0,0,0,0,0.1,0c0-0.1,0-0.2,0.1-0.3c0.1-0.2,0.4-0.3,0.6-0.3c0.3,0.1,0.5,0.3,0.5,0.5c0,1.6,0,3.2,0,4.9
		c0,0.2-0.1,0.3-0.2,0.5c0,0-0.1,0.1-0.1,0.1C28.8,37.3,28.6,37.3,28.4,37.3z M26.2,33.5c0,0.2,0,0.4,0.1,0.6
		c0.1,0.4,0.4,0.6,0.8,0.7c0.4,0,0.6-0.2,0.8-0.5c0.1-0.2,0.1-0.4,0.2-0.6c0-0.4,0-0.8-0.2-1.2c-0.3-0.5-1.1-0.6-1.5,0
		C26.2,32.9,26.2,33.2,26.2,33.5z"/>
	<path class="st0" d="M20,14.7c0.5,0.2,0.8,0.5,1,1c0.4,1-0.5,1.9-1.3,1.9c-0.8,0-1.5-0.6-1.6-1.5c0-0.5,0.4-1.1,0.8-1.3
		c0.1,0,0.1,0,0.2-0.1c0,0,0,0,0,0l0,0c0,0,0,0,0,0c0.1,0,0.2,0,0.3-0.1c0.1,0,0.3,0,0.4,0C19.8,14.8,19.9,14.8,20,14.7z"/>
	<path class="st0" d="M16.5,14.8c0.5,0.2,0.9,0.5,1,1.1c0.2,0.9-0.5,1.6-1.1,1.8c-0.8,0.2-1.6-0.4-1.8-1.2c0,0,0-0.1,0-0.1
		c0-0.1,0-0.3,0-0.4c0,0,0,0,0,0c0.1-0.6,0.5-0.9,1-1.1c0.1,0,0.1,0,0.1-0.1c0.2,0,0.4,0,0.5,0C16.3,14.7,16.4,14.8,16.5,14.8z"/>
	<path class="st1" d="M1.3,23.5C1.3,23.5,1.4,23.6,1.3,23.5c0.1,0,0.1,0,0.1,0c0,0.1,0,0.2,0,0.3c0,0.1,0,0.1-0.1,0.2
		c0,0,0-0.1,0-0.1c0,0,0,0,0-0.1c0,0,0,0,0-0.1c0,0,0-0.1,0-0.1C1.3,23.6,1.3,23.6,1.3,23.5z"/>
	<path class="st1" d="M19.4,14.7c-0.1,0.1-0.2,0.1-0.3,0.1c0,0,0-0.1,0-0.1C19.2,14.7,19.3,14.7,19.4,14.7z"/>
	<path class="st1" d="M50.6,25.1c0-0.1,0-0.3,0.1-0.4c0,0.1,0,0.2,0,0.3C50.6,25,50.7,25.1,50.6,25.1z"/>
	<path class="st1" d="M16.5,14.8c-0.1,0-0.2-0.1-0.2-0.1C16.3,14.7,16.4,14.7,16.5,14.8C16.5,14.7,16.5,14.7,16.5,14.8z"/>
	<path class="st1" d="M10.1,14.7C10.1,14.7,10.1,14.7,10.1,14.7c-0.1,0.1-0.1,0-0.2,0C9.9,14.7,10,14.7,10.1,14.7z"/>
	<path class="st1" d="M20,14.7c-0.1,0-0.1,0-0.2-0.1C19.9,14.7,19.9,14.7,20,14.7C20,14.7,20,14.7,20,14.7z"/>
	<path class="st1" d="M9.3,14.8C9.3,14.8,9.3,14.7,9.3,14.8c0-0.1,0-0.1,0-0.1c0,0,0.1,0,0.1,0C9.4,14.7,9.4,14.7,9.3,14.8z"/>
	<path class="st1" d="M15.7,14.7c0,0.1-0.1,0.1-0.1,0.1C15.6,14.7,15.6,14.7,15.7,14.7C15.7,14.7,15.7,14.7,15.7,14.7z"/>
	<path class="st0" d="M1.3,23.7C1.4,23.7,1.4,23.7,1.3,23.7C1.3,23.7,1.3,23.7,1.3,23.7z"/>
	<path class="st0" d="M1.3,23.8C1.4,23.8,1.4,23.9,1.3,23.8C1.3,23.9,1.3,23.8,1.3,23.8z"/>
	<path class="st1" d="M1.3,25.2C1.3,25.2,1.3,25.2,1.3,25.2C1.4,25.2,1.4,25.3,1.3,25.2C1.3,25.2,1.3,25.2,1.3,25.2z"/>
	<path class="st1" d="M45.6,31.8c0.3-0.3,0.7-0.5,1.2-0.5c0.5,0,0.9,0.2,1.2,0.6c0.1-0.1,0.2-0.2,0.3-0.3c0.5-0.4,1.5-0.4,2,0.1
		c0.2,0.2,0.3,0.5,0.3,0.7c0,0.9,0,1.8,0,2.7c0,0.2-0.1,0.4-0.3,0.5c-0.2,0.1-0.4,0.1-0.6,0c-0.3-0.2-0.3-0.4-0.3-0.7
		c0-0.7,0-1.3,0-2c0-0.1,0-0.2,0-0.4c-0.1-0.3-0.3-0.4-0.6-0.4c-0.4,0.1-0.6,0.4-0.6,0.8c-0.1,0.6,0,1.3,0,1.9c0,0.1,0,0.3-0.1,0.4
		c-0.1,0.2-0.3,0.4-0.5,0.4c-0.3,0-0.5-0.1-0.6-0.4c0-0.1-0.1-0.2-0.1-0.4c0-0.5,0-1,0-1.5c0-0.2,0-0.5,0-0.7
		c-0.1-0.5-0.3-0.5-0.7-0.5c-0.3,0-0.4,0.2-0.4,0.5c-0.1,0.3-0.1,0.5-0.1,0.8c0,0.5,0,1,0,1.6c0,0.3-0.2,0.6-0.5,0.6
		c-0.3,0-0.6-0.2-0.6-0.5c0-0.1-0.1-0.3-0.1-0.4c0-0.9,0-1.8,0-2.7c0-0.2,0-0.3,0.1-0.5c0.1-0.2,0.3-0.4,0.5-0.4
		c0.2,0,0.4,0.1,0.5,0.4C45.5,31.7,45.5,31.8,45.6,31.8z"/>
	<path class="st1" d="M23.1,32.9c0-0.4-0.2-0.7-0.7-0.7c-0.1,0-0.3,0-0.4,0c-0.2,0-0.4,0.2-0.5,0.4c0,0.1-0.1,0.1-0.1,0.2
		c-0.2,0.3-0.4,0.3-0.6,0.2c-0.2-0.1-0.3-0.3-0.2-0.6c0.1-0.4,0.4-0.7,0.8-0.8c0.5-0.2,1-0.2,1.5-0.2c0.2,0,0.4,0,0.6,0.1
		c0.5,0.2,0.8,0.5,0.8,1c0,0.3,0,0.6,0,0.8c0,0.6,0,1.2,0.2,1.8c0.1,0.2,0,0.4-0.2,0.5c-0.2,0.1-0.4,0.2-0.6,0
		c-0.2-0.1-0.3-0.3-0.4-0.5c-0.1,0-0.2,0.1-0.3,0.1c-0.4,0.3-0.9,0.4-1.4,0.4c-0.5,0-0.9-0.2-1.1-0.7c-0.4-0.7-0.1-1.5,0.7-1.7
		c0.4-0.2,0.9-0.2,1.4-0.3C22.7,33,22.9,32.9,23.1,32.9z M23,33.7c-0.2,0-0.4,0.1-0.5,0.1c-0.3,0.1-0.6,0.1-0.8,0.2
		c-0.2,0.1-0.3,0.3-0.2,0.5c0.1,0.3,0.4,0.5,0.7,0.4c0.6-0.1,0.9-0.3,1-1C23.1,33.8,23.1,33.8,23,33.7z"/>
	<path class="st1" d="M41.5,35.7c-1.3,0-2.2-0.9-2.2-2.2c0-1.3,0.8-2.2,2.2-2.2c1.3,0,2.2,0.9,2.2,2.2
		C43.7,34.9,42.9,35.7,41.5,35.7z M42.5,33.5c0-0.3,0-0.5-0.1-0.7c-0.2-0.4-0.5-0.6-0.9-0.6c-0.4,0-0.7,0.2-0.8,0.5
		c-0.2,0.5-0.2,1,0,1.6c0.3,0.6,1.2,0.7,1.6,0.1C42.5,34.1,42.5,33.8,42.5,33.5z"/>
	<path class="st1" d="M10.4,35.7c-0.6,0-1.1-0.2-1.5-0.5c-0.4-0.3-0.6-0.8-0.7-1.2c-0.1-0.7,0-1.4,0.5-1.9c0.3-0.4,0.7-0.6,1.2-0.7
		c0.5-0.1,1-0.1,1.4,0.1c0.6,0.3,1,0.7,1.1,1.4c0.2,0.8,0.1,1.5-0.4,2.1c-0.3,0.4-0.8,0.6-1.3,0.7C10.7,35.7,10.6,35.7,10.4,35.7z
		 M11.4,33.5c0-0.1,0-0.3-0.1-0.5c-0.1-0.4-0.4-0.7-0.8-0.7c-0.5,0-0.8,0.1-1,0.5c-0.2,0.4-0.2,0.8-0.1,1.3c0.1,0.4,0.3,0.7,0.8,0.8
		c0.4,0,0.7-0.1,0.9-0.4C11.4,34.2,11.4,33.9,11.4,33.5z"/>
	<path class="st1" d="M14.2,32.5c0.1,0.2,0.2,0.3,0.4,0.4c0.4,0.1,0.8,0.2,1.1,0.3c0.3,0.1,0.6,0.3,0.9,0.5c0.3,0.4,0.2,1.1,0,1.4
		c-0.3,0.4-0.7,0.5-1.1,0.6c-0.6,0.1-1.2,0.1-1.8-0.2c-0.3-0.2-0.6-0.4-0.6-0.8c0-0.2,0.1-0.5,0.3-0.6c0.2-0.1,0.5,0,0.6,0.1
		c0.1,0.1,0.1,0.2,0.2,0.3c0.2,0.4,1,0.5,1.3,0.2c0.2-0.1,0.2-0.4,0-0.6c-0.2-0.1-0.4-0.2-0.6-0.2c-0.3-0.1-0.6-0.2-0.9-0.3
		c-0.3-0.1-0.6-0.3-0.8-0.6c-0.3-0.5,0-1.2,0.5-1.5c0.5-0.3,0.9-0.3,1.5-0.3c0.3,0,0.6,0.1,0.9,0.3c0.2,0.1,0.4,0.3,0.5,0.6
		c0.1,0.2,0,0.4-0.2,0.6c-0.2,0.1-0.4,0.1-0.6,0c-0.2-0.1-0.2-0.3-0.4-0.4c-0.3-0.2-0.7-0.3-1-0.2C14.3,32.3,14.3,32.3,14.2,32.5z"
		/>
	<path class="st1" d="M34.7,33.6c0-0.7,0.2-1.2,0.7-1.7c0.3-0.3,0.6-0.4,1-0.5c0.5-0.1,1.1-0.1,1.6,0.2c0.4,0.2,0.7,0.5,0.8,0.9
		c0.1,0.2,0,0.4-0.2,0.6c-0.3,0.2-0.4,0.1-0.6-0.1c-0.1-0.1-0.2-0.3-0.4-0.4c-0.3-0.4-1.2-0.4-1.5,0.3c-0.2,0.5-0.2,1,0,1.5
		c0.3,0.6,1.2,0.6,1.6,0.1c0.1-0.1,0.2-0.3,0.3-0.4c0.2-0.2,0.4-0.3,0.6-0.2c0.2,0.1,0.4,0.4,0.3,0.6c-0.1,0.5-0.5,0.8-0.9,1
		c-0.7,0.3-1.4,0.3-2.1,0c-0.6-0.3-0.9-0.8-1.1-1.5c0-0.1,0-0.1,0-0.2C34.7,33.7,34.7,33.6,34.7,33.6z"/>
	<path class="st1" d="M19,32.3c0,0.7,0,1.4,0,2.1c0,0.1,0,0.2,0.1,0.3c0.2,0,0.4,0,0.6,0c0.2,0,0.4,0.1,0.5,0.2
		c0.1,0.2,0,0.4-0.2,0.6c-0.2,0.1-0.4,0.1-0.6,0.2c-0.3,0-0.7,0-1-0.1c-0.3-0.1-0.5-0.4-0.5-0.8c0-0.3,0-0.6,0-1c0-0.5,0-1,0-1.4
		c0-0.1,0-0.1,0-0.2c-0.5-0.1-0.6-0.2-0.6-0.5c0-0.4,0.3-0.4,0.6-0.5c0.1-0.1,0-0.1,0-0.2c0-0.3,0-0.5,0-0.8c0-0.3,0.2-0.5,0.4-0.6
		c0.2-0.1,0.5,0.1,0.6,0.3c0.1,0.1,0.1,0.3,0.1,0.4c0,0.3,0,0.5,0,0.8c0,0,0,0,0,0c0.1,0,0.2,0,0.3,0c0.2,0,0.4,0.1,0.5,0.3
		c0.1,0.2,0,0.4-0.2,0.5c-0.1,0.1-0.3,0.1-0.4,0.1C19.2,32.3,19.1,32.3,19,32.3z"/>
	<path class="st1" d="M31.4,32.7c0,0.7,0,1.5,0,2.2c0,0.1,0,0.2,0,0.3c-0.1,0.3-0.3,0.4-0.6,0.4c-0.3,0-0.5-0.2-0.5-0.5
		c0-0.1,0-0.2,0-0.3c0-1.5,0-2.9,0-4.4c0-0.2,0-0.3,0.1-0.5c0.1-0.2,0.3-0.4,0.5-0.3c0.2,0,0.4,0.2,0.5,0.4c0,0.1,0.1,0.2,0.1,0.3
		C31.4,31.2,31.4,32,31.4,32.7C31.4,32.7,31.4,32.7,31.4,32.7z"/>
	<path class="st1" d="M33.1,35.7c-0.4,0-0.6-0.3-0.6-0.6c0-0.4,0.3-0.6,0.6-0.6c0.4,0,0.7,0.3,0.7,0.6
		C33.8,35.5,33.5,35.7,33.1,35.7z"/>
	<path class="st1" d="M45.4,29.1C45.4,29,45.4,29.1,45.4,29.1C45.4,29.1,45.4,29.1,45.4,29.1z"/>
	<path class="st1" d="M50.6,25.2C50.6,25.2,50.6,25.2,50.6,25.2C50.6,25.2,50.6,25.2,50.6,25.2z"/>
	<path class="st1" d="M45,29C45.1,29,45.1,29,45,29C45.1,29,45.1,29,45,29C45.1,29,45,29,45,29z"/>
	<polygon class="st1" points="5.5,29.1 5.5,29.1 5.5,29.1 5.5,29.1 	"/>
	<path class="st1" d="M45.3,29C45.3,29,45.3,29,45.3,29C45.3,29.1,45.3,29.1,45.3,29z"/>
	<path class="st1" d="M45.5,29.1C45.5,29.1,45.5,29.1,45.5,29.1C45.5,29.1,45.5,29.1,45.5,29.1z"/>
	<path class="st1" d="M46.4,29.1C46.4,29.1,46.4,29.1,46.4,29.1C46.4,29.1,46.4,29.1,46.4,29.1z"/>
	<path class="st1" d="M8.5,16.1c0-0.1,0-0.2,0-0.2C8.5,16,8.5,16,8.5,16.1z"/>
	<path class="st1" d="M46.1,26.6c0.1,0,0.1,0,0.2,0C46.2,26.7,46.1,26.7,46.1,26.6z"/>
	<path class="st1" d="M17.8,25.1c0.1,0,0.1,0,0.2,0C18,25.1,17.9,25.1,17.8,25.1z"/>
	<path class="st1" d="M13.9,25.3C13.9,25.2,13.9,25.2,13.9,25.3C13.9,25.2,14,25.2,13.9,25.3z"/>
	<path class="st1" d="M33.4,23.3C33.4,23.3,33.4,23.3,33.4,23.3C33.4,23.3,33.4,23.3,33.4,23.3z"/>
	<path class="st1" d="M13.4,23.7C13.4,23.7,13.4,23.7,13.4,23.7C13.4,23.7,13.4,23.7,13.4,23.7z"/>
	<path class="st1" d="M29.9,23.1C29.9,23.1,29.9,23.1,29.9,23.1C30,23.1,30,23.1,29.9,23.1z"/>
	<path class="st1" d="M36.5,25.3C36.5,25.3,36.5,25.3,36.5,25.3C36.5,25.3,36.5,25.3,36.5,25.3z"/>
	<path class="st1" d="M37,22.9C37,22.9,37,22.8,37,22.9C37,22.8,37,22.9,37,22.9z"/>
	<path class="st1" d="M35.6,25.2C35.6,25.2,35.6,25.2,35.6,25.2C35.6,25.3,35.6,25.3,35.6,25.2z"/>
	<path class="st1" d="M29.7,24.7C29.7,24.6,29.7,24.6,29.7,24.7C29.7,24.6,29.7,24.6,29.7,24.7z"/>
	<path class="st1" d="M36.7,24.4C36.7,24.4,36.7,24.4,36.7,24.4C36.7,24.4,36.7,24.4,36.7,24.4z"/>
	<path class="st1" d="M35.6,25.3C35.6,25.3,35.6,25.3,35.6,25.3C35.6,25.3,35.6,25.3,35.6,25.3z"/>
	<path class="st1" d="M41.3,24.1C41.3,24.1,41.3,24.1,41.3,24.1C41.3,24.1,41.3,24.1,41.3,24.1C41.3,24.1,41.3,24.1,41.3,24.1z"/>
	<path class="st1" d="M25.3,23.6L25.3,23.6C25.3,23.5,25.3,23.5,25.3,23.6C25.3,23.5,25.3,23.5,25.3,23.6z"/>
	<path class="st1" d="M33.6,22.3C33.6,22.3,33.6,22.3,33.6,22.3C33.6,22.3,33.6,22.3,33.6,22.3C33.6,22.3,33.6,22.3,33.6,22.3z"/>
	<path class="st1" d="M19.8,22.8C19.8,22.8,19.8,22.8,19.8,22.8C19.8,22.8,19.8,22.8,19.8,22.8C19.8,22.8,19.8,22.8,19.8,22.8z"/>
	<path class="st1" d="M19.8,23.4C19.8,23.4,19.8,23.4,19.8,23.4C19.8,23.4,19.8,23.4,19.8,23.4C19.8,23.4,19.8,23.4,19.8,23.4z"/>
	<path class="st1" d="M8.5,24.7C8.5,24.7,8.5,24.7,8.5,24.7C8.5,24.7,8.5,24.7,8.5,24.7z"/>
	<path class="st1" d="M13.4,22.3L13.4,22.3C13.4,22.3,13.4,22.3,13.4,22.3C13.4,22.3,13.4,22.3,13.4,22.3z"/>
	<path class="st1" d="M33.2,24.9C33.2,24.9,33.2,24.9,33.2,24.9C33.2,24.8,33.2,24.8,33.2,24.9C33.2,24.9,33.2,24.9,33.2,24.9z"/>
	<path class="st1" d="M36.7,25C36.7,25,36.7,24.9,36.7,25C36.7,24.9,36.7,24.9,36.7,25C36.7,24.9,36.7,25,36.7,25z"/>
	<path class="st1" d="M27.5,25.1C27.5,25.1,27.5,25.2,27.5,25.1C27.5,25.2,27.5,25.1,27.5,25.1L27.5,25.1z"/>
	<path class="st1" d="M1.5,23.3C1.5,23.3,1.5,23.3,1.5,23.3C1.5,23.3,1.5,23.3,1.5,23.3z"/>
	<path class="st1" d="M37.1,21.8C37.1,21.8,37.1,21.8,37.1,21.8C37.1,21.8,37.2,21.8,37.1,21.8L37.1,21.8z"/>
	<path class="st1" d="M25.4,22.8C25.4,22.8,25.4,22.8,25.4,22.8C25.4,22.8,25.4,22.8,25.4,22.8L25.4,22.8z"/>
	<path class="st1" d="M27.8,23.3C27.8,23.3,27.8,23.3,27.8,23.3C27.8,23.3,27.8,23.3,27.8,23.3L27.8,23.3z"/>
	<path class="st1" d="M19.8,23.2C19.8,23.2,19.8,23.2,19.8,23.2C19.8,23.2,19.8,23.2,19.8,23.2L19.8,23.2z"/>
	<path class="st1" d="M37.2,21.7C37.2,21.7,37.2,21.7,37.2,21.7C37.2,21.7,37.2,21.7,37.2,21.7z"/>
	<path class="st1" d="M5.7,26.7C5.8,26.7,5.8,26.7,5.7,26.7C5.8,26.7,5.8,26.7,5.7,26.7L5.7,26.7z"/>
	<path class="st1" d="M5.9,26.7C5.9,26.7,5.9,26.7,5.9,26.7C5.9,26.7,5.9,26.7,5.9,26.7z"/>
	<path class="st1" d="M37,23.1C37,23,37,23,37,23.1C37,23,37,23,37,23.1C37,23,37,23,37,23.1z"/>
	<path class="st1" d="M17.4,20.9L17.4,20.9C17.3,20.9,17.3,20.9,17.4,20.9C17.3,20.9,17.3,20.9,17.4,20.9z"/>
	<path class="st1" d="M10.9,16C10.9,16.1,10.9,16.1,10.9,16C10.9,16.1,10.9,16.1,10.9,16C10.9,16.1,10.9,16.1,10.9,16z"/>
	<path class="st1" d="M45.5,19.8C45.5,19.8,45.5,19.8,45.5,19.8C45.5,19.8,45.5,19.8,45.5,19.8z"/>
	<polygon class="st1" points="46.4,19.8 46.4,19.8 46.4,19.8 46.4,19.8 	"/>
	<path class="st1" d="M16.8,18.7C16.8,18.7,16.8,18.7,16.8,18.7C16.8,18.7,16.8,18.7,16.8,18.7z"/>
	<path class="st1" d="M18.2,18.6C18.2,18.6,18.2,18.6,18.2,18.6C18.2,18.6,18.2,18.6,18.2,18.6L18.2,18.6z"/>
	<path class="st1" d="M13.4,22.4C13.4,22.4,13.4,22.3,13.4,22.4C13.4,22.3,13.4,22.3,13.4,22.4L13.4,22.4z"/>
	<path class="st0" d="M28.3,17.7c0.7,0,1.1,0.3,1.4,1c0.3,0.8-0.1,1.7-1,2c-0.1,0-0.1,0-0.2,0c0,0,0,0,0,0c-0.1,0-0.2,0-0.3,0
		c0,0,0,0,0,0c-0.7-0.1-1.2-0.5-1.3-1.2c0,0,0,0,0,0c-0.1-0.9,0.5-1.6,1.3-1.7C28.2,17.7,28.2,17.7,28.3,17.7
		C28.3,17.7,28.3,17.7,28.3,17.7L28.3,17.7z"/>
	<path class="st0" d="M26.2,19c0.1,0.8-0.5,1.5-1.2,1.7c-0.1,0-0.2,0-0.2,0c0,0,0,0,0,0l0,0c-0.5,0-1-0.2-1.3-0.6
		c-0.1-0.2-0.2-0.4-0.3-0.7c0-0.1,0-0.2,0-0.4c0.1-0.7,0.6-1.2,1.3-1.3c0,0,0,0,0.1,0c0,0,0,0,0,0l0,0c0,0,0.1,0,0.1,0c0,0,0,0,0,0
		l0,0c0.4,0,0.8,0.2,1.1,0.5C26.1,18.4,26.2,18.7,26.2,19C26.2,18.9,26.2,19,26.2,19z"/>
	<path class="st1" d="M23.3,19c0,0.1,0,0.2,0,0.4C23.2,19.2,23.2,19.1,23.3,19z"/>
	<path class="st1" d="M14.6,16.4c0,0,0,0.1,0,0.1C14.6,16.4,14.6,16.4,14.6,16.4z"/>
	<path class="st1" d="M14.6,15.9C14.6,15.9,14.6,15.9,14.6,15.9C14.6,15.9,14.6,15.9,14.6,15.9C14.6,15.9,14.6,15.9,14.6,15.9z"/>
	<polygon class="st1" points="19.1,14.8 19.1,14.8 19.1,14.8 	"/>
	<path class="st1" d="M28.5,20.6C28.5,20.6,28.5,20.6,28.5,20.6C28.5,20.7,28.5,20.7,28.5,20.6z"/>
	<path class="st1" d="M28.2,20.6C28.2,20.6,28.2,20.6,28.2,20.6C28.2,20.6,28.2,20.7,28.2,20.6L28.2,20.6z"/>
	<polygon class="st1" points="24.8,20.7 24.8,20.7 24.8,20.7 24.8,20.7 	"/>
	<path class="st1" d="M24.7,17.7L24.7,17.7C24.7,17.7,24.7,17.7,24.7,17.7C24.7,17.7,24.7,17.7,24.7,17.7z"/>
	<path class="st1" d="M26.8,19.4C26.8,19.4,26.8,19.4,26.8,19.4C26.8,19.4,26.8,19.4,26.8,19.4C26.8,19.4,26.8,19.4,26.8,19.4z"/>
	<path class="st1" d="M26.2,19C26.2,19,26.2,18.9,26.2,19C26.2,18.9,26.2,19,26.2,19C26.3,19,26.2,19,26.2,19z"/>
	<path class="st1" d="M28.3,17.7L28.3,17.7C28.3,17.7,28.3,17.7,28.3,17.7C28.3,17.7,28.3,17.7,28.3,17.7z"/>
	<path class="st1" d="M24.8,17.7L24.8,17.7C24.8,17.7,24.8,17.7,24.8,17.7C24.8,17.7,24.8,17.7,24.8,17.7z"/>
</g>
</svg>
