<?xml version="1.0" encoding="utf-8"?>
<!-- Generator: Adobe Illustrator 27.6.1, SVG Export Plug-In . SVG Version: 6.00 Build 0)  -->
<svg version="1.1" id="Layer_1" xmlns="http://www.w3.org/2000/svg" xmlns:xlink="http://www.w3.org/1999/xlink" x="0px" y="0px"
	 viewBox="0 0 52 52" style="enable-background:new 0 0 52 52;" xml:space="preserve">
<style type="text/css">
	.st0{fill:#151516;}
	.st1{fill:#3E51A3;}
</style>
<g>
	<path class="st0" d="M48.4,26c0-0.1,0-0.1,0-0.1c0-1.1,0-2.2,0-3.3c0,0,0-0.1,0-0.1c0,0,0.1,0,0.1,0c0.3,0,0.6,0,0.9,0
		c0.3,0,0.6,0,0.9,0c0,0,0.1,0,0.1,0c0,0,0,0,0,0.1c0,0,0,0.1,0,0.1c0,2.2,0,4.5,0,6.7c0,0,0,0.1,0,0.1c0,0-0.1,0-0.1,0
		c-0.6,0-1.2,0-1.9,0c0,0-0.1,0-0.1,0c0,0,0-0.1,0-0.1c0-0.3,0.1-0.6,0.1-1c0-0.2,0-0.3,0.1-0.5c0,0,0-0.1,0-0.1c0,0-0.1,0-0.1,0
		c0,0,0,0.1,0,0.1c-0.1,0.5-0.4,0.9-0.8,1.2c-0.4,0.3-0.8,0.4-1.3,0.5c-0.1,0-0.2,0-0.3,0c-0.1,0-0.2,0-0.3,0
		c-0.3,0-0.5-0.1-0.8-0.2c-0.5-0.2-0.8-0.5-1.1-0.9c-0.2-0.4-0.4-0.8-0.4-1.2c0-0.3,0-0.7,0-1c0.1-0.4,0.3-0.8,0.6-1.2
		c0.4-0.5,0.9-0.7,1.4-0.8c0.2,0,0.5,0,0.7,0c0.5,0,1,0.2,1.4,0.5c0.4,0.3,0.7,0.7,0.8,1.2C48.4,25.9,48.4,26,48.4,26z M46.8,25.9
		c-0.1,0-0.3,0-0.4,0c-0.2,0-0.5,0.1-0.7,0.3c-0.2,0.1-0.3,0.3-0.3,0.5c0,0.1,0,0.3,0,0.4c0,0.2,0.1,0.3,0.2,0.4
		c0.1,0.2,0.3,0.3,0.5,0.4c0.2,0.1,0.5,0.1,0.7,0.1c0.3,0,0.5-0.1,0.7-0.2c0.2-0.1,0.3-0.2,0.4-0.3c0.2-0.2,0.2-0.5,0.2-0.8
		c0-0.1-0.1-0.2-0.1-0.3c-0.1-0.2-0.3-0.3-0.5-0.4C47.4,25.9,47.1,25.8,46.8,25.9z"/>
	<path class="st0" d="M34.3,26C34.3,26,34.3,25.9,34.3,26c0-0.1,0-0.2,0-0.2c0-1.1,0-2.2,0-3.3c0,0,0-0.1,0-0.1c0,0,0.1,0,0.1,0
		c0.6,0,1.2,0,1.8,0c0,0,0.1,0,0.1,0c0,0,0,0.1,0,0.1c0,0.3,0,0.7,0,1c0,1.9,0,3.8,0,5.8c0,0,0,0.1,0,0.1c0,0-0.1,0-0.1,0
		c-0.6,0-1.2,0-1.9,0c0,0-0.1,0-0.1,0c0,0,0-0.1,0-0.1c0-0.3,0.1-0.7,0.1-1c0-0.1,0-0.3,0.1-0.4c0,0,0,0,0-0.1c-0.1,0-0.1,0-0.1,0
		c0,0.1,0,0.1,0,0.2c-0.1,0.2-0.2,0.4-0.3,0.6c-0.4,0.5-0.9,0.8-1.5,0.9c-0.2,0-0.4,0.1-0.6,0.1c-0.1,0-0.2,0-0.3,0
		c-0.4,0-0.7-0.1-1.1-0.3c-0.1-0.1-0.2-0.1-0.2-0.2c-0.2-0.1-0.3-0.3-0.4-0.5c-0.2-0.3-0.3-0.6-0.4-0.9c-0.1-0.2-0.1-0.4-0.1-0.6
		c0-0.4,0-0.7,0.1-1.1c0.1-0.3,0.2-0.5,0.3-0.8c0.4-0.5,0.8-0.9,1.5-1c0.3-0.1,0.6-0.1,0.9-0.1c0.5,0,1,0.2,1.4,0.5
		c0.4,0.3,0.6,0.7,0.8,1.1C34.2,25.9,34.2,25.9,34.3,26z M32.7,25.9c-0.3,0-0.5,0-0.7,0.1c-0.2,0.1-0.4,0.2-0.6,0.5
		c-0.1,0.2-0.1,0.5-0.1,0.7c0,0.1,0.1,0.2,0.2,0.3c0.1,0.2,0.3,0.3,0.5,0.3c0.5,0.2,1,0.2,1.5,0c0.2-0.1,0.4-0.2,0.6-0.5
		c0.1-0.2,0.1-0.4,0.1-0.6c0-0.1,0-0.2-0.1-0.3c-0.1-0.2-0.3-0.4-0.6-0.5C33.2,25.9,32.9,25.8,32.7,25.9z"/>
	<path class="st0" d="M42.7,27.3C42.7,27.4,42.7,27.4,42.7,27.3c0,0.6,0,1,0,1.5c0,0,0,0.1,0,0.1c0,0,0,0-0.1,0
		c-0.4,0.1-0.8,0.3-1.2,0.3c-0.3,0-0.5,0.1-0.8,0.1c-0.3,0-0.6,0-0.9,0c-0.3,0-0.6,0-0.8-0.1c-0.3-0.1-0.6-0.2-0.9-0.3
		c-0.4-0.2-0.6-0.5-0.9-0.8c-0.2-0.3-0.3-0.7-0.4-1.1c-0.1-0.5,0-0.9,0.2-1.4c0.1-0.3,0.3-0.5,0.5-0.7c0.3-0.3,0.6-0.5,1-0.7
		c0.3-0.1,0.7-0.2,1-0.2c0.2,0,0.4,0,0.6,0c0.5,0,0.9,0.1,1.3,0.3c0.3,0.1,0.5,0.3,0.8,0.5c0.4,0.4,0.6,0.8,0.7,1.3c0,0,0,0.1,0,0.1
		c0,0.3,0,0.6,0,0.9c0,0,0,0,0,0c0,0-0.1,0-0.1,0c-0.1,0-0.2,0-0.2,0c-1.2,0-2.4,0-3.5,0c0,0-0.1,0-0.1,0c0,0,0,0.1,0,0.1
		c0.1,0.2,0.2,0.3,0.4,0.4c0.2,0.1,0.4,0.1,0.7,0.2c0.2,0,0.4,0,0.6,0c0.6,0,1.1-0.1,1.6-0.3C42.3,27.5,42.4,27.4,42.7,27.3
		C42.6,27.3,42.6,27.3,42.7,27.3z M40.9,26.4c0-0.1,0-0.2-0.1-0.3c-0.1-0.2-0.3-0.3-0.5-0.3c-0.2-0.1-0.4-0.1-0.7,0
		c-0.4,0.1-0.7,0.3-0.8,0.6c0,0,0,0.1,0,0.1c0,0,0.1,0,0.1,0c0.1,0,0.3,0,0.4,0c0.2,0,0.5,0,0.7,0C40.3,26.4,40.6,26.4,40.9,26.4
		C40.8,26.4,40.9,26.4,40.9,26.4z"/>
	<path class="st0" d="M12.4,27.5C12.4,27.5,12.4,27.5,12.4,27.5c0,0.6,0,1,0,1.5c0,0.1,0,0.1-0.1,0.2c-0.3,0.1-0.6,0.2-0.9,0.3
		c-0.3,0.1-0.6,0.1-0.9,0.1c-0.2,0-0.4,0-0.6,0c-0.1,0-0.2,0-0.3,0c-0.5,0-1-0.1-1.5-0.3c-0.3-0.1-0.5-0.3-0.8-0.5
		c-0.1-0.1-0.3-0.3-0.4-0.4c-0.2-0.2-0.3-0.5-0.4-0.8c-0.1-0.4-0.1-0.8,0-1.2c0.1-0.4,0.2-0.8,0.5-1.2c0.3-0.4,0.7-0.6,1.1-0.8
		c0.3-0.1,0.7-0.2,1-0.2c0.2,0,0.5,0,0.7,0c0.3,0,0.6,0.1,0.9,0.2c0.4,0.1,0.7,0.3,1,0.5c0.3,0.3,0.6,0.6,0.7,1.1
		c0,0.2,0.1,0.3,0.1,0.5c0,0.2,0,0.4,0,0.7c0,0,0,0.1,0,0.1c0,0,0,0-0.1,0c0,0-0.1,0-0.1,0c-1.2,0-2.5,0-3.7,0c0,0-0.1,0-0.1,0
		c0,0,0,0.1,0,0.1c0.1,0.2,0.3,0.3,0.4,0.4C9.4,27.9,9.6,28,9.9,28c0.1,0,0.1,0,0.2,0c0.4,0,0.8,0,1.3-0.1c0.3-0.1,0.5-0.2,0.8-0.3
		C12.2,27.6,12.3,27.5,12.4,27.5C12.3,27.5,12.4,27.5,12.4,27.5z M8.6,26.6C8.6,26.6,8.6,26.6,8.6,26.6c0.2,0,0.2,0,0.3,0
		c0.3,0,0.6,0,0.8,0c0.3,0,0.6,0,0.9,0c0,0,0.1,0,0.1,0c0,0,0,0,0-0.1c0-0.1-0.1-0.2-0.1-0.3c-0.1-0.2-0.3-0.3-0.5-0.3
		c-0.2-0.1-0.5-0.1-0.7,0c-0.3,0.1-0.6,0.3-0.7,0.6C8.6,26.5,8.6,26.5,8.6,26.6z"/>
	<path class="st0" d="M25.7,29.5c-0.4,0-0.9,0-1.3-0.2c-0.4-0.1-0.7-0.3-1-0.5c-0.5-0.4-0.8-0.8-0.9-1.4c-0.1-0.5-0.1-1.1,0.1-1.6
		c0.1-0.3,0.3-0.5,0.5-0.7c0.1-0.2,0.3-0.3,0.5-0.4c0.3-0.2,0.5-0.3,0.8-0.4c0.3-0.1,0.6-0.1,0.9-0.2c0.2,0,0.4,0,0.6,0
		c0.2,0,0.5,0,0.7,0.1c0.3,0.1,0.6,0.1,0.9,0.3c0.5,0.3,0.9,0.6,1.2,1.1c0.2,0.3,0.2,0.7,0.3,1.1c0,0.3,0,0.6-0.1,0.8
		c-0.1,0.3-0.2,0.6-0.5,0.9c-0.3,0.4-0.8,0.7-1.2,0.8c-0.3,0.1-0.6,0.2-0.9,0.2C26,29.5,25.8,29.5,25.7,29.5z M25.6,25.8
		c-0.1,0-0.2,0-0.3,0c-0.3,0-0.5,0.1-0.7,0.3c-0.3,0.3-0.3,0.8-0.1,1.2c0.1,0.2,0.4,0.4,0.6,0.5c0.4,0.1,0.8,0.1,1.2,0
		c0.1-0.1,0.3-0.1,0.4-0.3c0.2-0.3,0.3-0.6,0.2-0.9c-0.1-0.3-0.3-0.5-0.6-0.6C26.1,25.8,25.9,25.8,25.6,25.8z"/>
	<path class="st0" d="M21.7,26.4C21.7,26.5,21.7,26.4,21.7,26.4c-0.4-0.2-0.8-0.4-1.1-0.5c-0.2-0.1-0.4-0.1-0.6-0.1
		c-0.2,0-0.3,0-0.5,0c-0.2,0-0.5,0.1-0.7,0.2c-0.3,0.2-0.4,0.4-0.5,0.7c0,0.3,0,0.5,0.2,0.7c0.1,0.2,0.3,0.3,0.6,0.4
		c0.2,0,0.3,0.1,0.5,0.1c0.6,0,1.2-0.1,1.8-0.4c0.1,0,0.2-0.1,0.2-0.1c0,0,0,0,0.1,0c0,0,0,0.1,0,0.1c0,0.2,0,0.4,0,0.6
		c0,0.3,0,0.6,0,0.9c0,0,0,0.1,0,0.1c0,0,0,0-0.1,0c-0.4,0.2-0.7,0.3-1.1,0.4c-0.2,0-0.4,0.1-0.6,0.1c-0.2,0-0.3,0-0.5,0
		c-0.2,0-0.4,0-0.6,0c-0.3,0-0.6-0.1-0.9-0.2c-0.3-0.1-0.6-0.3-0.8-0.5c-0.4-0.4-0.7-0.9-0.7-1.5c0-0.3,0-0.5,0-0.8
		c0-0.3,0.1-0.6,0.2-0.9c0.1-0.2,0.2-0.4,0.4-0.6c0.4-0.5,1-0.7,1.6-0.9c0.4-0.1,0.7-0.1,1.1,0c0.4,0,0.8,0.1,1.2,0.2
		c0.2,0.1,0.5,0.2,0.7,0.3c0.1,0,0.1,0.1,0.1,0.2C21.8,25.4,21.8,25.9,21.7,26.4C21.8,26.4,21.8,26.4,21.7,26.4z"/>
	<path class="st0" d="M3.6,26.4C3.6,26.4,3.6,26.4,3.6,26.4c0.1-0.2,0.1-0.2,0.1-0.3c0.1-0.3,0.2-0.6,0.3-0.9c0.2-0.4,0.6-0.7,1-0.8
		c0.2-0.1,0.5-0.1,0.8-0.2c0.1,0,0.2,0,0.4,0c0,0,0.1,0,0.1,0c0,0,0,0.1,0,0.1c0,0.5,0,1,0,1.5c0,0,0,0.1,0,0.1c0,0-0.1,0-0.1,0
		c-0.2,0-0.4,0-0.7,0c-0.3,0-0.7,0-1,0.2c-0.3,0.1-0.5,0.3-0.6,0.5c-0.1,0.2-0.1,0.3-0.2,0.5c0,0.2,0,0.3,0,0.5c0,0.5,0,1,0,1.6
		c0,0.1,0,0.1,0,0.2c0,0-0.1,0-0.1,0c-0.6,0-1.2,0-1.8,0c0,0-0.1,0-0.1,0c0,0,0,0,0-0.1c0,0,0-0.1,0-0.1c0-1.6,0-3.2,0-4.7
		c0,0,0-0.1,0-0.1c0,0,0.1,0,0.1,0c0.7,0,1.3,0,2,0c0,0,0.1,0,0.1,0c0,0.1,0,0.2,0,0.2c0,0.2,0,0.5-0.1,0.7c0,0.3,0,0.5-0.1,0.8
		C3.5,26.2,3.5,26.3,3.6,26.4C3.5,26.4,3.5,26.4,3.6,26.4z"/>
	<path class="st1" d="M13.5,25.3c0-0.5,0.4-1,1-1c0.6,0,1,0.4,1,1c0,0.6-0.5,1-1.1,1C14,26.3,13.5,25.9,13.5,25.3z"/>
	<path class="st1" d="M14.5,29.4c-0.6,0-1-0.5-1-1c0-0.5,0.4-1.1,1-1.1c0.6,0,1,0.5,1,1C15.6,28.9,15.1,29.4,14.5,29.4z"/>
</g>
</svg>
