<?xml version="1.0" encoding="utf-8"?>
<!-- Generator: Adobe Illustrator 27.6.1, SVG Export Plug-In . SVG Version: 6.00 Build 0)  -->
<svg version="1.1" id="Layer_1" xmlns="http://www.w3.org/2000/svg" xmlns:xlink="http://www.w3.org/1999/xlink" x="0px" y="0px"
	 viewBox="0 0 52 52" style="enable-background:new 0 0 52 52;" xml:space="preserve">
<style type="text/css">
	.st0{fill:#F6E05E;}
</style>
<circle class="st0" cx="26" cy="26" r="26"/>
<g>
	<path d="M37.9,31.7c0.1,0.2,0.1,0.4,0.1,0.4c0,0.1-0.1,0.2-0.3,0.4S37.3,32.8,37,33l-0.4-0.1l-0.4,0.6c-0.3,0-0.7,0.1-1,0.3
		l-0.9-0.2l-0.5,0.2l-0.2,0.3c-0.3-0.2-0.5-0.3-0.6-0.3c0,0-0.1,0-0.1,0.1h-0.2l-0.3,0.3l-0.3-0.3L31.9,34c-0.2-0.1-0.4-0.2-0.5-0.2
		h-1l-0.3-0.3l-0.3,0.1l-0.5-0.3L29,33.5l-0.2-0.4h-0.5L28,32.7h-0.4c0,0-0.1-0.1-0.2-0.2c-0.1-0.2-0.2-0.3-0.4-0.4l-1-0.5
		c-0.6-0.3-1-0.7-1.3-1.4h-0.4l-0.5-0.6l-0.9-0.7l-1.1-1.2l-0.3-0.1L21,27.1c-0.1-0.1-0.3-0.2-0.7-0.3c-0.1,0.1-0.3,0.1-0.4,0.1
		s-0.2,0-0.3-0.1l0,0c0,0,0,0-0.1,0h-0.3L19,26.1c0.1-0.1,0.2-0.3,0.2-0.6l0.4-0.1v-0.2L20,25c0.1-0.1,0.3-0.2,0.4-0.2
		s0.2,0,0.3,0.1c0.1,0.1,0.2,0.1,0.2,0.1s0.1,0,0.1-0.1c0.1,0.4,0.5,0.6,1.4,0.6c0.7,0,1.2-0.1,1.6-0.2v-0.1l2.4-0.1
		c0.6-0.3,1.1-0.4,1.8-0.4l0.2,0.1l0.5-0.2l0.1-0.2h0.4l0.5-0.2h0.3c0.2,0,0.3,0,0.3-0.1c0,0,0.1-0.1,0.1-0.2v-0.1
		c0.3,0,0.4-0.1,0.4-0.1c0.8-0.2,1.2-0.6,1.2-1.1c0-0.2-0.1-0.5-0.3-0.7l-1.1-1h-0.3c-0.5-0.3-0.8-0.5-0.9-0.5h-0.3l-0.6-0.3h-0.4
		l-0.4-0.3h-0.7l-0.3-0.1l-1.8-0.1l-0.3-0.2l-0.2,0.1l-0.4-0.1l-0.3,0.1L23,19.4l-1,0.2l-0.5-0.2l-0.6,0.1l-0.5-0.1L20,19.6
		l-0.3-0.1l-0.6,0.4l-0.5-0.1c-0.1,0.3-0.3,0.6-0.5,0.8l0.2,0.5L18.2,23l0.2,1.6C18.2,25.3,18,25.8,18,26l-0.1,4l0.3,2.4L18,33.6
		v0.3c0,0.2-0.2,0.3-0.6,0.3h-0.1l0.2-1.2l-0.2-0.5L17,31.1l0.2-0.1c-0.3-0.3-0.4-0.5-0.4-0.6c0-0.2,0.1-0.4,0.4-0.6l-0.3-0.5l0,0
		h-0.1c0-0.1,0.1-0.4,0.4-0.9C17.1,28.2,17,28,17,27.8l0.1-0.5V27c0.1-0.3,0.2-0.5,0.2-0.7s-0.1-0.5-0.2-0.8l0.2-0.5l-0.1-0.5
		l0.2-0.2c-0.1-0.1-0.1-0.2-0.1-0.3c0-0.2,0.1-0.4,0.2-0.8l-0.3,0.1L17,22.4l0.2-0.6L17,20.4l0.2-0.2c-0.3-0.3-0.6-0.5-0.8-0.5h-0.1
		L16,20l-0.7-0.1l-0.5,0.6c-0.2-0.2-0.4-0.3-0.6-0.3c-0.2-0.2-0.3-0.4-0.3-0.5s0-0.2,0.1-0.3c0-0.1,0.1-0.2,0.2-0.3l0.4-0.3l1-0.1
		l1.3-0.1l0.3-0.2v-0.1c0-0.3,0.2-0.5,0.7-0.5h0.4c0.1,0.5,0.3,0.7,0.6,0.7c0.1,0,0.3-0.1,0.7-0.3l0.8,0.2l1.3-0.2l1.7,0.2l2.4,0.1
		l1.2,0.2h0.9l0.3,0.3c0-0.1,0.1-0.2,0.2-0.2s0.2,0.1,0.3,0.2c0,0.1,0,0.3,0.1,0.4l0.3,0.1V19l1.3,0.5l0.4,0.3l0.1-0.1
		c0.2,0.1,0.5,0.2,0.8,0.2l0.2,0.3l0.3,0.1c0.3,0.5,0.6,0.9,0.8,1.2c0.2,0.3,0.3,0.5,0.3,0.7c0,0.4-0.2,0.7-0.5,1s-0.7,0.7-1.1,1.1
		h-0.3h-0.3c-0.1,0-0.2,0.1-0.6,0.2l-0.1,0.3h-0.9L29.2,25c0,0-0.1,0.1-0.3,0.1l-0.5,0.1c-0.5,0-1,0.2-1.4,0.7l-0.5-0.3L26.2,26
		c-0.1-0.1-0.2-0.1-0.3-0.1c-0.1,0-0.3,0.1-0.5,0.3L25,26l-0.4,0.2L24.4,26l-0.6,0.3L23,26.2c-0.2,0-0.3,0-0.5,0.1l0.3,0.4l0.8,0.7
		l0.2,0.4l1.3,1l0.3,0.5l0.2,0.2c0.1,0.1,0.2,0.4,0.4,0.9h0.9l1,1l0.5,0.2l0.7,0.4l0.7,0.2l1,0.4l0.4-0.1l0.2,0.1l0.1-0.1l0.1,0.2
		l0.5-0.1l0.1,0.3l0.4-0.2l0.4,0.1l1.1-0.1l0.4,0.1l1.6-0.3l1.1-0.3l0.1,0.2l0.2-0.4H38L37.9,31.7z"/>
</g>
</svg>
